<?xml version="1.0" encoding="UTF-8"?>
<svg xmlns="http://www.w3.org/2000/svg" xmlns:xlink="http://www.w3.org/1999/xlink" width="70px" height="47px" viewBox="0 0 70 47" version="1.1">
<g id="surface1">
<path style=" stroke:none;fill-rule:nonzero;fill:rgb(86.666667%,23.137255%,13.333334%);fill-opacity:1;" d="M 21.625 14.433594 C 21.550781 14.480469 21.285156 14.609375 21.023438 14.714844 C 20.773438 14.824219 20.480469 14.945312 20.375 14.992188 C 20.273438 15.039062 19.960938 15.171875 19.683594 15.273438 C 19.40625 15.386719 19.089844 15.515625 18.988281 15.554688 C 18.128906 15.925781 17.847656 16.039062 17.691406 16.113281 C 17.589844 16.160156 17.277344 16.289062 16.996094 16.390625 C 16.71875 16.496094 16.40625 16.625 16.304688 16.671875 C 16.203125 16.71875 15.914062 16.839844 15.65625 16.949219 C 15.40625 17.0625 15.109375 17.183594 15.007812 17.230469 C 14.90625 17.277344 14.589844 17.40625 14.3125 17.511719 C 14.035156 17.613281 13.71875 17.742188 13.617188 17.789062 C 13.515625 17.835938 13.230469 17.957031 12.96875 18.070312 C 12.71875 18.179688 12.425781 18.304688 12.324219 18.347656 C 12.21875 18.394531 11.90625 18.527344 11.628906 18.628906 C 11.351562 18.730469 11.035156 18.863281 10.933594 18.910156 C 10.832031 18.957031 10.542969 19.078125 10.285156 19.1875 C 10.035156 19.300781 9.738281 19.421875 9.636719 19.46875 C 9.535156 19.515625 9.222656 19.644531 8.941406 19.746094 C 8.664062 19.851562 8.351562 19.980469 8.25 20.027344 C 7.925781 20.175781 7.019531 20.558594 6.351562 20.828125 C 5.871094 21.015625 5.183594 21.304688 4.917969 21.425781 C 4.535156 21.59375 3.886719 21.863281 3.574219 21.984375 C 3.257812 22.105469 2.609375 22.375 2.230469 22.542969 C 1.445312 22.898438 1.167969 23.011719 1.074219 23.011719 C 0.878906 23.011719 0.351562 23.484375 0.203125 23.804688 C 0 24.242188 0.0195312 24.78125 0.269531 25.230469 C 0.378906 25.445312 1.210938 26.375 2.121094 27.300781 L 3.777344 28.976562 L 5.101562 28.976562 L 4.859375 28.761719 C 4.730469 28.652344 4.0625 28.027344 3.378906 27.382812 C 2.695312 26.738281 1.953125 26.039062 1.730469 25.84375 C 1.269531 25.433594 0.890625 24.875 0.890625 24.605469 C 0.890625 24.289062 1.453125 23.804688 2.09375 23.578125 C 2.425781 23.46875 2.757812 23.335938 2.832031 23.289062 C 2.917969 23.253906 3.109375 23.1875 3.285156 23.152344 C 3.453125 23.113281 3.695312 23.027344 3.832031 22.953125 C 3.972656 22.878906 4.15625 22.824219 4.238281 22.824219 C 4.324219 22.824219 4.417969 22.785156 4.445312 22.738281 C 4.472656 22.695312 4.648438 22.628906 4.832031 22.589844 C 5.019531 22.5625 5.238281 22.496094 5.324219 22.453125 C 5.40625 22.40625 5.933594 22.21875 6.488281 22.03125 C 7.054688 21.84375 7.589844 21.660156 7.695312 21.613281 C 7.796875 21.574219 8.148438 21.445312 8.480469 21.332031 C 8.8125 21.21875 9.148438 21.097656 9.222656 21.054688 C 9.304688 21.015625 9.507812 20.949219 9.683594 20.914062 C 9.859375 20.875 10.054688 20.808594 10.101562 20.773438 C 10.15625 20.734375 10.507812 20.605469 10.886719 20.492188 C 11.265625 20.371094 11.628906 20.242188 11.675781 20.203125 C 11.730469 20.167969 11.914062 20.113281 12.089844 20.074219 C 12.265625 20.035156 12.46875 19.972656 12.554688 19.933594 C 12.628906 19.886719 12.960938 19.765625 13.292969 19.65625 C 13.628906 19.542969 13.980469 19.414062 14.082031 19.375 C 14.183594 19.335938 14.535156 19.207031 14.867188 19.09375 C 15.203125 18.984375 15.535156 18.863281 15.609375 18.816406 C 15.691406 18.777344 15.894531 18.714844 16.070312 18.675781 C 16.246094 18.636719 16.441406 18.574219 16.488281 18.546875 C 16.542969 18.507812 16.878906 18.378906 17.230469 18.265625 C 17.589844 18.152344 17.960938 18.023438 18.0625 17.976562 C 18.164062 17.929688 18.542969 17.800781 18.894531 17.695312 C 19.804688 17.40625 20.097656 17.25 20.65625 16.746094 C 21.136719 16.308594 21.488281 15.710938 21.765625 14.898438 C 21.960938 14.304688 21.941406 14.246094 21.625 14.433594 Z M 48.355469 17.015625 C 48.316406 17.042969 48.289062 18.367188 48.289062 19.953125 L 48.289062 22.824219 L 49.679688 22.824219 L 49.679688 21.855469 C 49.679688 21.3125 49.714844 20.773438 49.769531 20.644531 C 49.855469 20.417969 49.902344 20.398438 50.410156 20.398438 C 50.742188 20.398438 50.992188 20.445312 51.046875 20.523438 C 51.105469 20.585938 51.167969 21.117188 51.179688 21.714844 L 51.207031 22.777344 L 52.503906 22.777344 L 52.503906 16.996094 L 51.882812 16.96875 C 51.140625 16.941406 51.167969 16.886719 51.132812 18.304688 L 51.113281 19.234375 L 50.457031 19.261719 C 49.808594 19.289062 49.789062 19.28125 49.734375 19.039062 C 49.695312 18.898438 49.667969 18.441406 49.679688 18.03125 C 49.6875 17.613281 49.6875 17.203125 49.6875 17.109375 C 49.679688 16.980469 49.585938 16.949219 49.050781 16.949219 C 48.695312 16.949219 48.382812 16.980469 48.355469 17.015625 Z M 55.03125 17.042969 C 54.945312 17.101562 54.855469 17.304688 54.816406 17.511719 C 54.78125 17.714844 54.722656 17.902344 54.679688 17.929688 C 54.640625 17.957031 54.574219 18.125 54.539062 18.3125 C 54.511719 18.5 54.445312 18.722656 54.398438 18.804688 C 54.355469 18.890625 54.105469 19.644531 53.84375 20.492188 C 53.578125 21.34375 53.328125 22.117188 53.28125 22.21875 C 53.066406 22.730469 53.105469 22.777344 53.769531 22.804688 C 54.34375 22.832031 54.390625 22.816406 54.445312 22.617188 C 54.484375 22.496094 54.574219 22.226562 54.648438 22.003906 L 54.796875 21.613281 L 55.566406 21.613281 C 56 21.613281 56.363281 21.660156 56.390625 21.714844 C 56.425781 21.761719 56.53125 22.03125 56.621094 22.292969 L 56.789062 22.777344 L 57.5 22.804688 C 58.148438 22.832031 58.207031 22.816406 58.160156 22.664062 C 58.132812 22.574219 58.085938 22.367188 58.046875 22.21875 C 58.011719 22.058594 57.957031 21.890625 57.917969 21.84375 C 57.882812 21.789062 57.816406 21.601562 57.789062 21.425781 C 57.75 21.25 57.6875 21.015625 57.640625 20.914062 C 57.59375 20.808594 57.472656 20.410156 57.363281 20.027344 C 57.25 19.644531 57.09375 19.113281 57.019531 18.863281 C 56.945312 18.601562 56.855469 18.332031 56.816406 18.257812 C 56.769531 18.171875 56.707031 17.96875 56.667969 17.789062 C 56.632812 17.613281 56.539062 17.351562 56.472656 17.203125 C 56.34375 16.96875 56.296875 16.949219 55.761719 16.949219 C 55.445312 16.949219 55.121094 16.996094 55.03125 17.042969 Z M 55.722656 19.046875 C 55.796875 19.113281 55.890625 19.382812 55.929688 19.625 C 55.964844 19.867188 56.03125 20.121094 56.074219 20.175781 C 56.222656 20.355469 55.929688 20.503906 55.492188 20.476562 C 55.046875 20.445312 55.058594 20.492188 55.242188 19.488281 C 55.355469 18.890625 55.472656 18.789062 55.722656 19.046875 Z M 58.167969 17.007812 C 58.132812 17.042969 58.101562 17.296875 58.101562 17.574219 C 58.101562 18.105469 58.09375 18.097656 58.6875 18.070312 C 59.316406 18.042969 59.308594 18.023438 59.308594 20.550781 L 59.308594 22.824219 L 60.789062 22.824219 L 60.789062 20.503906 C 60.789062 17.894531 60.734375 18.070312 61.539062 18.070312 L 62 18.070312 L 61.972656 17.527344 L 61.945312 16.996094 L 60.085938 16.96875 C 59.066406 16.960938 58.207031 16.980469 58.167969 17.007812 Z M 62.640625 19.886719 L 62.640625 22.824219 L 64.121094 22.824219 L 64.101562 19.90625 L 64.074219 16.996094 L 63.363281 16.96875 L 62.640625 16.941406 Z M 33.394531 17.109375 C 33.015625 17.183594 32.394531 17.902344 32.320312 18.339844 C 32.226562 18.878906 32.339844 19.46875 32.578125 19.765625 C 32.765625 20 33.800781 20.585938 34.023438 20.585938 C 34.171875 20.585938 34.589844 21.042969 34.589844 21.203125 C 34.589844 21.386719 34.132812 21.796875 33.921875 21.796875 C 33.828125 21.796875 33.570312 21.601562 33.347656 21.371094 C 32.941406 20.949219 32.941406 20.949219 32.558594 21.054688 C 32.105469 21.175781 32.015625 21.34375 32.191406 21.6875 C 32.375 22.058594 32.941406 22.636719 33.117188 22.636719 C 33.207031 22.636719 33.308594 22.675781 33.339844 22.730469 C 33.429688 22.878906 34.246094 22.84375 34.644531 22.675781 C 35.097656 22.488281 35.394531 22.21875 35.617188 21.78125 C 35.921875 21.175781 35.800781 20.308594 35.339844 19.851562 C 35.179688 19.691406 34.003906 19.09375 33.855469 19.09375 C 33.808594 19.09375 33.679688 18.984375 33.578125 18.851562 C 33.429688 18.667969 33.414062 18.5625 33.476562 18.433594 C 33.71875 17.996094 34.300781 18.03125 34.515625 18.5 C 34.605469 18.703125 34.660156 18.730469 34.941406 18.675781 C 35.375 18.59375 35.605469 18.433594 35.605469 18.21875 C 35.605469 17.957031 35.253906 17.484375 34.929688 17.296875 C 34.644531 17.128906 33.78125 17.027344 33.394531 17.109375 Z M 41.003906 17.742188 C 40.746094 17.910156 40.503906 18.144531 40.46875 18.246094 C 40.4375 18.359375 40.328125 18.488281 40.226562 18.535156 C 39.976562 18.675781 39.976562 19.421875 40.226562 19.550781 C 40.375 19.636719 40.402344 19.792969 40.4375 20.746094 C 40.496094 22.011719 40.632812 22.460938 41.058594 22.675781 C 41.421875 22.871094 42.03125 22.871094 42.214844 22.675781 C 42.300781 22.601562 42.363281 22.394531 42.363281 22.21875 C 42.363281 21.910156 42.246094 21.796875 41.902344 21.796875 C 41.671875 21.796875 41.605469 21.433594 41.644531 20.398438 L 41.671875 19.609375 L 41.949219 19.5625 C 42.214844 19.515625 42.226562 19.496094 42.226562 19.046875 C 42.226562 18.601562 42.214844 18.582031 41.949219 18.535156 C 41.679688 18.488281 41.671875 18.46875 41.644531 17.949219 C 41.625 17.660156 41.585938 17.417969 41.550781 17.425781 C 41.511719 17.425781 41.273438 17.566406 41.003906 17.742188 Z M 41.003906 17.742188 "/>
<path style=" stroke:none;fill-rule:nonzero;fill:rgb(86.666667%,23.137255%,13.333334%);fill-opacity:1;" d="M 18.757812 18.695312 C 18.070312 18.917969 17.441406 19.140625 17.367188 19.1875 C 17.285156 19.226562 17.082031 19.289062 16.90625 19.328125 C 16.730469 19.367188 16.542969 19.429688 16.488281 19.46875 C 16.441406 19.503906 16.246094 19.570312 16.070312 19.609375 C 15.894531 19.644531 15.710938 19.710938 15.65625 19.746094 C 15.609375 19.785156 15.414062 19.851562 15.238281 19.886719 C 15.0625 19.925781 14.859375 19.988281 14.777344 20.035156 C 14.703125 20.074219 13.953125 20.324219 13.109375 20.585938 C 12.265625 20.855469 11.453125 21.136719 11.285156 21.203125 C 11.128906 21.277344 10.914062 21.332031 10.8125 21.332031 C 10.703125 21.332031 10.601562 21.371094 10.574219 21.417969 C 10.535156 21.464844 10.351562 21.527344 10.148438 21.566406 C 9.941406 21.601562 9.757812 21.660156 9.730469 21.707031 C 9.703125 21.753906 9.515625 21.808594 9.3125 21.84375 C 9.109375 21.882812 8.925781 21.9375 8.898438 21.984375 C 8.871094 22.023438 8.703125 22.085938 8.515625 22.125 C 8.332031 22.152344 8.109375 22.21875 8.027344 22.265625 C 7.945312 22.3125 7.589844 22.433594 7.230469 22.542969 C 6.878906 22.65625 6.5 22.777344 6.398438 22.824219 C 6.296875 22.863281 5.710938 23.058594 5.101562 23.242188 C 4.488281 23.4375 3.859375 23.652344 3.695312 23.71875 C 3.535156 23.792969 3.324219 23.847656 3.222656 23.847656 C 3.109375 23.847656 3.007812 23.886719 2.980469 23.933594 C 2.953125 23.980469 2.785156 24.046875 2.621094 24.074219 C 2.109375 24.167969 1.535156 24.484375 1.535156 24.671875 C 1.535156 24.761719 1.640625 24.941406 1.757812 25.050781 C 1.980469 25.265625 1.992188 25.265625 2.621094 25.109375 C 2.960938 25.023438 3.433594 24.914062 3.667969 24.867188 C 3.898438 24.820312 4.148438 24.734375 4.238281 24.6875 C 4.324219 24.640625 4.601562 24.578125 4.859375 24.539062 C 5.121094 24.503906 5.359375 24.4375 5.386719 24.398438 C 5.414062 24.351562 5.519531 24.316406 5.609375 24.316406 C 5.703125 24.316406 5.898438 24.214844 6.035156 24.082031 C 6.175781 23.953125 6.453125 23.804688 6.664062 23.757812 C 6.878906 23.699219 7.257812 23.597656 7.507812 23.53125 C 8.804688 23.167969 9.109375 23.085938 9.40625 23.011719 C 9.582031 22.964844 9.898438 22.871094 10.101562 22.816406 C 10.304688 22.757812 10.703125 22.65625 10.980469 22.589844 C 11.472656 22.46875 12.089844 22.300781 13.0625 22.03125 C 14.414062 21.660156 14.675781 21.59375 15.054688 21.507812 C 15.285156 21.464844 15.535156 21.378906 15.609375 21.34375 C 15.691406 21.296875 15.941406 21.230469 16.164062 21.191406 C 16.386719 21.15625 16.636719 21.089844 16.71875 21.042969 C 16.792969 21.007812 17.042969 20.921875 17.277344 20.875 C 18.523438 20.597656 18.609375 20.558594 19.136719 20.027344 C 19.570312 19.589844 20.238281 18.5625 20.238281 18.332031 C 20.238281 18.210938 20.089844 18.246094 18.757812 18.695312 Z M 36.949219 18.957031 C 36.671875 19.226562 36.53125 19.449219 36.53125 19.609375 C 36.53125 19.832031 36.558594 19.839844 37.023438 19.839844 C 37.457031 19.839844 37.523438 19.8125 37.691406 19.5625 C 37.792969 19.414062 37.921875 19.28125 37.976562 19.28125 C 38.144531 19.28125 38.382812 19.609375 38.382812 19.832031 C 38.382812 20.046875 38.023438 20.25 37.792969 20.15625 C 37.652344 20.101562 36.929688 20.445312 36.707031 20.679688 C 36.503906 20.886719 36.421875 21.164062 36.421875 21.660156 C 36.421875 22.246094 36.496094 22.414062 36.867188 22.628906 C 37.253906 22.863281 37.617188 22.878906 37.910156 22.675781 C 38.097656 22.535156 38.1875 22.535156 38.605469 22.636719 C 39.484375 22.851562 39.449219 22.925781 39.449219 20.996094 C 39.449219 19.792969 39.410156 19.246094 39.328125 19.085938 C 39.125 18.703125 38.71875 18.535156 38.003906 18.535156 C 37.367188 18.535156 37.355469 18.535156 36.949219 18.957031 Z M 38.367188 21.164062 C 38.410156 21.539062 38.132812 21.910156 37.835938 21.875 C 37.53125 21.835938 37.46875 21.453125 37.699219 21.097656 C 37.921875 20.765625 38.328125 20.800781 38.367188 21.164062 Z M 42.921875 20.371094 C 42.921875 22.359375 42.949219 22.460938 43.449219 22.722656 C 43.726562 22.863281 44.226562 22.84375 44.429688 22.695312 C 44.550781 22.601562 44.679688 22.582031 44.890625 22.648438 C 45.316406 22.769531 45.753906 22.75 45.875 22.601562 C 45.949219 22.515625 45.976562 21.882812 45.957031 20.53125 L 45.929688 18.582031 L 45.402344 18.554688 C 44.890625 18.527344 44.863281 18.535156 44.855469 18.742188 L 44.855469 20.074219 C 44.863281 21.40625 44.800781 21.742188 44.503906 21.78125 C 44.382812 21.796875 44.246094 21.769531 44.179688 21.707031 C 44.113281 21.640625 44.058594 21.035156 44.03125 20.09375 L 43.984375 18.582031 L 43.457031 18.554688 L 42.921875 18.527344 Z M 65.09375 21.480469 C 64.777344 21.828125 64.796875 22.179688 65.148438 22.535156 C 65.5 22.890625 65.851562 22.90625 66.195312 22.589844 C 66.5 22.300781 66.539062 21.714844 66.25 21.425781 C 65.964844 21.136719 65.378906 21.175781 65.09375 21.480469 Z M 18.082031 21.667969 C 18.054688 21.695312 17.765625 21.789062 17.441406 21.863281 C 17.117188 21.9375 16.609375 22.058594 16.304688 22.132812 C 14.996094 22.46875 14.703125 22.542969 14.265625 22.636719 C 14.015625 22.695312 13.71875 22.777344 13.617188 22.824219 C 13.515625 22.871094 13.25 22.9375 13.015625 22.972656 C 12.792969 23 12.542969 23.066406 12.460938 23.113281 C 12.386719 23.152344 12.117188 23.234375 11.859375 23.289062 C 11.609375 23.347656 11.164062 23.449219 10.886719 23.523438 C 10.609375 23.597656 10.117188 23.71875 9.804688 23.792969 C 9.25 23.933594 8.710938 24.074219 7.554688 24.363281 C 7.277344 24.4375 6.796875 24.566406 6.488281 24.652344 C 6.183594 24.734375 5.703125 24.855469 5.425781 24.929688 C 5.148438 24.996094 4.648438 25.125 4.3125 25.203125 C 3.980469 25.285156 3.507812 25.40625 3.25 25.460938 C 2.445312 25.65625 2.386719 25.761719 2.898438 26.113281 L 3.25 26.355469 L 4.035156 26.21875 C 5.582031 25.9375 6.3125 25.808594 7.082031 25.675781 C 7.695312 25.582031 7.898438 25.507812 8.015625 25.339844 C 8.121094 25.203125 8.332031 25.097656 8.628906 25.042969 C 9.574219 24.867188 10.5 24.6875 11.164062 24.558594 C 11.542969 24.484375 12.238281 24.351562 12.691406 24.269531 C 13.15625 24.183594 13.839844 24.046875 14.21875 23.972656 C 14.601562 23.894531 15.230469 23.785156 15.609375 23.710938 C 16.996094 23.46875 17.332031 23.273438 18.0625 22.300781 C 18.238281 22.070312 18.386719 21.816406 18.386719 21.742188 C 18.386719 21.613281 18.191406 21.566406 18.082031 21.667969 Z M 15.238281 24.652344 C 14.859375 24.714844 14.191406 24.835938 13.757812 24.921875 C 13.324219 24.996094 12.636719 25.125 12.230469 25.203125 C 11.824219 25.285156 11.136719 25.40625 10.703125 25.492188 C 9.867188 25.640625 8.886719 25.824219 7.722656 26.050781 C 6.183594 26.339844 5.445312 26.476562 4.703125 26.589844 C 3.75 26.738281 3.621094 26.84375 3.988281 27.167969 C 4.527344 27.644531 4.59375 27.664062 5.285156 27.578125 C 5.648438 27.53125 6.453125 27.429688 7.089844 27.34375 C 7.730469 27.269531 8.683594 27.160156 9.222656 27.101562 C 10.015625 27.019531 10.238281 26.964844 10.425781 26.785156 C 10.601562 26.628906 10.839844 26.554688 11.441406 26.476562 C 12.925781 26.292969 13.617188 26.179688 14.292969 26.03125 C 14.925781 25.890625 15.027344 25.824219 15.570312 25.304688 C 16.136719 24.753906 16.304688 24.492188 16.054688 24.511719 C 15.988281 24.519531 15.617188 24.578125 15.238281 24.652344 Z M 26.625 26.050781 C 26.3125 26.113281 25.792969 26.375 25.550781 26.601562 C 24.746094 27.34375 24.386719 29.144531 24.738281 30.582031 C 24.996094 31.644531 25.285156 32.0625 25.96875 32.425781 C 26.46875 32.679688 27.535156 32.695312 28.015625 32.464844 C 28.523438 32.210938 29.0625 31.578125 29.265625 30.960938 C 29.496094 30.292969 29.53125 28.15625 29.320312 27.710938 C 28.96875 26.933594 28.875 26.785156 28.710938 26.617188 C 28.253906 26.179688 27.300781 25.929688 26.625 26.050781 Z M 27.617188 27.570312 C 27.941406 27.839844 28.105469 28.464844 28.105469 29.414062 C 28.105469 30.710938 27.738281 31.402344 27.042969 31.402344 C 26.347656 31.402344 26.070312 30.859375 26.070312 29.507812 C 26.070312 28.269531 26.125 28.007812 26.460938 27.664062 C 26.785156 27.335938 27.292969 27.300781 27.617188 27.570312 Z M 41.761719 26.066406 C 41.578125 26.097656 41.578125 26.160156 41.578125 29.351562 L 41.578125 32.613281 L 41.949219 32.667969 C 42.152344 32.695312 42.484375 32.707031 42.6875 32.6875 L 43.058594 32.660156 L 43.085938 31.410156 C 43.097656 30.671875 43.152344 30.105469 43.214844 30.03125 C 43.273438 29.957031 43.53125 29.910156 43.902344 29.910156 C 44.726562 29.910156 44.789062 30.019531 44.761719 31.429688 C 44.753906 32.007812 44.773438 32.527344 44.800781 32.585938 C 44.835938 32.640625 45.140625 32.679688 45.484375 32.667969 L 46.113281 32.660156 L 46.140625 29.367188 C 46.160156 26.777344 46.140625 26.085938 46.050781 26.078125 C 45.667969 26.050781 44.835938 26.078125 44.789062 26.125 C 44.761719 26.160156 44.753906 26.617188 44.761719 27.148438 C 44.789062 28.472656 44.773438 28.511719 43.847656 28.511719 L 43.105469 28.511719 L 43.105469 27.300781 C 43.105469 26.628906 43.078125 26.085938 43.039062 26.078125 C 42.800781 26.050781 41.921875 26.039062 41.761719 26.066406 Z M 47.125 26.105469 C 47.085938 26.160156 47.066406 30.839844 47.085938 32.632812 C 47.085938 32.667969 47.910156 32.695312 48.929688 32.707031 C 50.558594 32.707031 50.78125 32.6875 50.902344 32.539062 C 51.105469 32.304688 51.53125 31.539062 51.53125 31.417969 C 51.53125 31.335938 51.121094 31.308594 50.105469 31.308594 C 48.511719 31.308594 48.566406 31.335938 48.566406 30.550781 C 48.566406 29.972656 48.679688 29.917969 49.816406 29.890625 L 50.835938 29.863281 L 50.863281 29.230469 L 50.890625 28.605469 L 49.835938 28.605469 C 48.667969 28.605469 48.566406 28.558594 48.566406 28.042969 C 48.566406 27.449219 48.667969 27.402344 49.863281 27.375 L 50.929688 27.34375 L 50.957031 26.710938 C 50.976562 26.246094 50.957031 26.085938 50.863281 26.085938 C 50.800781 26.085938 49.9375 26.078125 48.957031 26.058594 C 47.964844 26.050781 47.140625 26.066406 47.125 26.105469 Z M 53.742188 26.125 C 53.695312 26.179688 53.660156 26.328125 53.660156 26.460938 C 53.660156 26.601562 53.632812 26.738281 53.59375 26.777344 C 53.546875 26.8125 53.472656 27.046875 53.410156 27.28125 C 53.355469 27.523438 53.234375 27.96875 53.148438 28.277344 C 53.066406 28.585938 52.945312 29.03125 52.890625 29.273438 C 52.828125 29.507812 52.753906 29.742188 52.707031 29.777344 C 52.667969 29.816406 52.640625 29.917969 52.640625 30.011719 C 52.640625 30.09375 52.578125 30.375 52.503906 30.617188 C 52.058594 32.117188 51.984375 32.445312 52.03125 32.566406 C 52.066406 32.667969 52.234375 32.707031 52.667969 32.707031 C 53.355469 32.707031 53.503906 32.59375 53.613281 32.007812 C 53.648438 31.800781 53.722656 31.605469 53.78125 31.570312 C 53.929688 31.476562 55.34375 31.476562 55.484375 31.570312 C 55.546875 31.613281 55.640625 31.839844 55.6875 32.089844 C 55.734375 32.332031 55.796875 32.554688 55.824219 32.59375 C 55.863281 32.632812 56.207031 32.667969 56.59375 32.6875 C 57.371094 32.734375 57.546875 32.648438 57.390625 32.3125 C 57.335938 32.191406 57.234375 31.914062 57.175781 31.679688 C 57.121094 31.445312 57.011719 31.046875 56.945312 30.792969 C 56.871094 30.535156 56.769531 30.140625 56.714844 29.910156 C 56.648438 29.675781 56.574219 29.40625 56.53125 29.304688 C 56.457031 29.125 56.371094 28.808594 56.132812 27.839844 C 56.066406 27.605469 55.992188 27.375 55.945312 27.335938 C 55.910156 27.300781 55.882812 27.207031 55.882812 27.121094 C 55.882812 26.925781 55.714844 26.347656 55.613281 26.191406 C 55.519531 26.039062 53.890625 25.984375 53.742188 26.125 Z M 54.898438 28.800781 C 54.984375 29.042969 55.074219 29.441406 55.113281 29.714844 C 55.167969 30.226562 55.1875 30.207031 54.632812 30.207031 C 54.078125 30.207031 54.09375 30.214844 54.160156 29.761719 C 54.207031 29.394531 54.324219 28.96875 54.546875 28.332031 C 54.605469 28.15625 54.707031 28.285156 54.898438 28.800781 Z M 58.1875 26.097656 C 58.140625 26.125 58.113281 27.511719 58.121094 29.40625 L 58.148438 32.660156 L 58.613281 32.6875 C 58.863281 32.707031 59.214844 32.695312 59.371094 32.660156 L 59.675781 32.601562 L 59.675781 31.402344 C 59.675781 30.300781 59.695312 30.1875 59.84375 30.1875 C 59.992188 30.1875 60.324219 30.488281 60.324219 30.617188 C 60.324219 30.644531 60.382812 30.804688 60.453125 30.960938 C 60.789062 31.71875 60.972656 32.183594 60.972656 32.285156 C 60.972656 32.574219 61.308594 32.707031 62.027344 32.695312 C 62.824219 32.679688 62.925781 32.601562 62.695312 32.175781 C 62.621094 32.035156 62.410156 31.578125 62.222656 31.167969 C 62.039062 30.757812 61.808594 30.261719 61.703125 30.078125 C 61.5 29.683594 61.539062 29.546875 61.9375 29.171875 C 62.453125 28.6875 62.464844 27.261719 61.945312 26.703125 C 61.5 26.226562 61.046875 26.097656 59.59375 26.066406 C 58.871094 26.050781 58.234375 26.066406 58.1875 26.097656 Z M 60.75 27.261719 C 61.203125 27.449219 61.25 27.523438 61.25 28.0625 C 61.25 28.574219 61.101562 28.773438 60.519531 29.03125 C 60.316406 29.125 60.113281 29.273438 60.085938 29.367188 C 60.058594 29.472656 59.964844 29.535156 59.882812 29.515625 C 59.742188 29.488281 59.722656 29.332031 59.695312 28.417969 C 59.6875 27.839844 59.695312 27.300781 59.714844 27.234375 C 59.777344 27.066406 60.316406 27.085938 60.75 27.261719 Z M 63.121094 26.066406 C 62.917969 26.097656 62.910156 26.132812 62.9375 26.722656 L 62.964844 27.34375 L 63.660156 27.375 C 64.039062 27.390625 64.390625 27.4375 64.445312 27.496094 C 64.5 27.550781 64.554688 28.621094 64.585938 30.125 L 64.628906 32.660156 L 65.269531 32.6875 C 65.621094 32.707031 65.945312 32.679688 65.992188 32.632812 C 66.039062 32.585938 66.074219 31.511719 66.066406 30.214844 C 66.066406 28.855469 66.101562 27.785156 66.148438 27.632812 C 66.242188 27.402344 66.269531 27.390625 66.992188 27.390625 L 67.730469 27.390625 L 67.730469 26.097656 L 65.539062 26.066406 C 64.324219 26.050781 63.242188 26.050781 63.121094 26.066406 Z M 32.578125 27.484375 C 32.46875 27.53125 32.21875 27.839844 32.023438 28.175781 C 31.828125 28.511719 31.625 28.789062 31.5625 28.789062 C 31.441406 28.789062 31.320312 28.148438 31.367188 27.765625 C 31.394531 27.53125 31.382812 27.53125 30.765625 27.53125 L 30.136719 27.53125 L 30.136719 29.882812 C 30.136719 31.175781 30.144531 32.324219 30.144531 32.425781 C 30.144531 32.601562 30.191406 32.621094 30.820312 32.59375 L 31.488281 32.566406 L 31.53125 31.027344 C 31.570312 29.761719 31.605469 29.433594 31.746094 29.230469 C 32.117188 28.660156 32.800781 28.511719 32.929688 28.976562 C 32.96875 29.105469 32.996094 29.945312 33.003906 30.851562 C 33.015625 32.722656 32.957031 32.613281 33.847656 32.613281 C 34.320312 32.613281 34.382812 32.59375 34.429688 32.40625 C 34.46875 32.296875 34.46875 31.382812 34.441406 30.375 C 34.382812 28.378906 34.308594 28.027344 33.839844 27.679688 C 33.53125 27.457031 32.882812 27.355469 32.578125 27.484375 Z M 36.503906 27.523438 C 35.941406 27.738281 35.625 28.042969 35.300781 28.695312 C 35.125 29.0625 35.097656 29.265625 35.097656 30.1875 C 35.097656 31.101562 35.125 31.308594 35.28125 31.539062 C 35.847656 32.398438 36.335938 32.640625 37.550781 32.640625 C 38.03125 32.648438 38.511719 32.601562 38.617188 32.546875 C 38.726562 32.480469 38.863281 32.230469 38.96875 31.921875 C 39.160156 31.261719 39.160156 31.175781 38.96875 31.261719 C 38.652344 31.371094 37.457031 31.476562 37.144531 31.402344 C 36.753906 31.316406 36.441406 31 36.441406 30.703125 L 36.441406 30.46875 L 37.726562 30.46875 C 38.4375 30.46875 39.078125 30.441406 39.160156 30.414062 C 39.273438 30.367188 39.308594 30.226562 39.308594 29.851562 C 39.308594 28.742188 38.949219 27.980469 38.261719 27.625 C 37.855469 27.410156 36.941406 27.355469 36.503906 27.523438 Z M 37.511719 28.660156 C 37.867188 28.828125 38.03125 29.21875 37.820312 29.367188 C 37.679688 29.460938 36.578125 29.425781 36.476562 29.320312 C 36.328125 29.171875 36.78125 28.640625 37.160156 28.519531 C 37.179688 28.511719 37.335938 28.574219 37.511719 28.660156 Z M 9.636719 27.578125 C 9.488281 27.625 8.878906 27.710938 8.296875 27.765625 C 7.710938 27.832031 6.75 27.921875 6.164062 27.988281 L 5.101562 28.101562 L 5.953125 28.976562 L 9.648438 28.957031 L 13.339844 28.929688 L 12.277344 28.285156 C 11.691406 27.921875 11.203125 27.605469 11.183594 27.558594 C 11.136719 27.464844 10 27.476562 9.636719 27.578125 Z M 6.0625 30.152344 C 5.832031 30.226562 5.527344 30.414062 5.378906 30.5625 C 5.15625 30.792969 5.109375 30.925781 5.109375 31.34375 C 5.101562 31.933594 5.257812 32.15625 5.886719 32.464844 C 6.488281 32.753906 7.804688 32.742188 8.371094 32.445312 C 9.210938 31.996094 9.367188 31.046875 8.703125 30.460938 C 8.222656 30.039062 6.925781 29.890625 6.0625 30.152344 Z M 7.609375 30.429688 C 8.101562 30.5625 8.277344 31.523438 7.886719 32.007812 C 7.683594 32.269531 7.621094 32.285156 7.089844 32.285156 C 6.582031 32.285156 6.5 32.257812 6.296875 32.023438 C 5.960938 31.632812 5.980469 31.007812 6.339844 30.644531 C 6.5625 30.429688 6.695312 30.375 7.019531 30.375 C 7.238281 30.375 7.5 30.402344 7.609375 30.429688 Z M 0.464844 30.199219 C 0.433594 30.253906 0.492188 30.355469 0.601562 30.429688 C 0.769531 30.550781 0.796875 30.664062 0.796875 31.335938 C 0.796875 32.023438 0.777344 32.109375 0.546875 32.351562 L 0.296875 32.613281 L 1.269531 32.613281 C 2.136719 32.601562 2.210938 32.59375 2.054688 32.472656 C 1.953125 32.398438 1.84375 32.332031 1.804688 32.332031 C 1.769531 32.332031 1.703125 32.203125 1.675781 32.035156 C 1.582031 31.632812 1.796875 31.492188 2.453125 31.492188 C 3.121094 31.492188 3.359375 31.570312 3.417969 31.765625 C 3.472656 32.007812 3.332031 32.3125 3.121094 32.378906 C 2.683594 32.511719 2.972656 32.613281 3.804688 32.613281 C 4.722656 32.613281 4.851562 32.546875 4.453125 32.277344 C 4.238281 32.136719 4.222656 32.070312 4.222656 31.34375 C 4.222656 30.589844 4.230469 30.550781 4.453125 30.449219 C 4.886719 30.253906 4.65625 30.140625 3.8125 30.140625 C 2.972656 30.140625 2.75 30.214844 3.136719 30.367188 C 3.386719 30.46875 3.5 30.738281 3.371094 30.972656 C 3.304688 31.09375 3.128906 31.121094 2.507812 31.121094 C 1.75 31.121094 1.722656 31.113281 1.667969 30.886719 C 1.601562 30.636719 1.757812 30.375 1.960938 30.375 C 2.121094 30.375 2.136719 30.1875 1.980469 30.179688 C 1.203125 30.113281 0.507812 30.125 0.464844 30.199219 Z M 9.636719 30.171875 C 9.535156 30.273438 9.601562 30.355469 9.824219 30.414062 C 10.046875 30.46875 10.054688 30.496094 10.054688 31.296875 C 10.054688 32.082031 10.035156 32.144531 9.824219 32.3125 C 9.691406 32.417969 9.589844 32.527344 9.589844 32.554688 C 9.589844 32.585938 9.90625 32.613281 10.296875 32.613281 L 11.007812 32.613281 L 10.757812 32.378906 C 10.527344 32.164062 10.507812 32.101562 10.535156 31.523438 C 10.554688 31.035156 10.601562 30.886719 10.710938 30.859375 C 10.785156 30.851562 10.898438 30.914062 10.941406 31.007812 C 10.988281 31.113281 11.117188 31.316406 11.230469 31.457031 C 11.351562 31.605469 11.589844 31.933594 11.777344 32.175781 L 12.109375 32.621094 L 12.71875 32.59375 L 13.339844 32.566406 L 13.367188 31.523438 C 13.394531 30.488281 13.394531 30.46875 13.617188 30.414062 C 14.015625 30.308594 13.867188 30.207031 13.285156 30.171875 C 12.609375 30.132812 12.425781 30.214844 12.71875 30.421875 C 12.894531 30.550781 12.925781 30.65625 12.925781 31.175781 C 12.925781 31.652344 12.894531 31.792969 12.765625 31.839844 C 12.683594 31.875 12.589844 31.847656 12.574219 31.792969 C 12.554688 31.726562 12.488281 31.625 12.433594 31.558594 C 12.367188 31.492188 12.21875 31.296875 12.089844 31.121094 C 11.96875 30.945312 11.832031 30.75 11.792969 30.703125 C 11.757812 30.644531 11.648438 30.503906 11.542969 30.375 C 11.386719 30.171875 11.3125 30.152344 10.527344 30.140625 C 10.0625 30.132812 9.664062 30.140625 9.636719 30.171875 Z M 14.351562 30.207031 C 14.3125 30.261719 14.359375 30.347656 14.441406 30.394531 C 14.5625 30.460938 14.589844 30.636719 14.589844 31.324219 C 14.589844 32.070312 14.5625 32.210938 14.386719 32.398438 L 14.191406 32.613281 L 15.617188 32.613281 C 16.894531 32.601562 17.089844 32.585938 17.460938 32.398438 C 18.421875 31.921875 18.421875 30.664062 17.460938 30.261719 C 17.144531 30.125 14.425781 30.078125 14.351562 30.207031 Z M 16.960938 30.664062 C 17.089844 30.804688 17.136719 31 17.136719 31.371094 C 17.136719 32.070312 16.914062 32.257812 16.128906 32.222656 L 15.5625 32.191406 L 15.535156 31.457031 C 15.515625 31.046875 15.527344 30.664062 15.554688 30.589844 C 15.589844 30.503906 15.785156 30.46875 16.191406 30.46875 C 16.671875 30.46875 16.8125 30.503906 16.960938 30.664062 Z M 19.847656 30.160156 C 19.449219 30.179688 19.128906 30.234375 19.128906 30.28125 C 19.128906 30.339844 19.183594 30.375 19.257812 30.375 C 19.320312 30.375 19.433594 30.441406 19.496094 30.515625 C 19.589844 30.625 19.515625 30.792969 19.128906 31.445312 C 18.859375 31.902344 18.542969 32.296875 18.421875 32.351562 C 18.027344 32.539062 18.183594 32.613281 18.953125 32.613281 L 19.710938 32.613281 L 19.460938 32.378906 C 19.332031 32.257812 19.21875 32.109375 19.21875 32.0625 C 19.21875 31.875 19.589844 31.773438 20.3125 31.773438 C 21.21875 31.773438 21.40625 31.902344 21.082031 32.332031 L 20.875 32.613281 L 21.875 32.613281 L 22.875 32.601562 L 22.535156 32.304688 C 22.347656 32.136719 22.007812 31.691406 21.773438 31.308594 C 21.035156 30.078125 21.082031 30.105469 19.847656 30.160156 Z M 20.515625 30.859375 C 20.617188 30.980469 20.691406 31.160156 20.683594 31.261719 C 20.65625 31.417969 20.589844 31.445312 20.238281 31.445312 C 19.757812 31.445312 19.664062 31.28125 19.921875 30.898438 C 20.109375 30.597656 20.265625 30.589844 20.515625 30.859375 Z M 68.390625 30.925781 C 67.878906 31.371094 67.980469 32.230469 68.582031 32.539062 C 68.992188 32.753906 69.324219 32.707031 69.722656 32.390625 C 69.964844 32.191406 70 32.109375 70 31.679688 C 70 31.269531 69.964844 31.167969 69.742188 30.972656 C 69.40625 30.683594 68.695312 30.65625 68.390625 30.925781 Z M 68.390625 30.925781 "/>
</g>
</svg>
