<?xml version="1.0" encoding="UTF-8"?>
<svg xmlns="http://www.w3.org/2000/svg" xmlns:xlink="http://www.w3.org/1999/xlink" width="90px" height="23px" viewBox="0 0 91 23" version="1.1">
<g id="surface1">
<path style=" stroke:none;fill-rule:nonzero;fill:rgb(80.000001%,0%,0%);fill-opacity:1;" d="M 71.519531 10.8125 L 71.519531 9.417969 L 72.914062 9.257812 C 73.398438 9.199219 73.605469 8.753906 73.664062 8.648438 L 77.144531 2.929688 C 77.425781 2.480469 77.152344 2.082031 76.785156 2.039062 L 74.949219 1.828125 L 74.949219 0.410156 L 82.886719 0.410156 C 83.328125 0.410156 83.613281 0.722656 83.796875 0.988281 L 88.433594 8.136719 C 88.796875 8.710938 89.078125 9.160156 89.542969 9.214844 L 91 9.378906 L 91 10.8125 L 82.085938 10.8125 L 82.085938 9.40625 L 83.21875 9.269531 C 83.761719 9.207031 84.207031 8.957031 83.761719 8.289062 L 83.335938 7.636719 L 77.003906 7.636719 L 76.519531 8.429688 C 76.214844 8.917969 76.519531 9.207031 76.984375 9.269531 L 78.117188 9.40625 L 78.117188 10.8125 Z M 78.144531 5.792969 L 82.148438 5.792969 L 80.125 2.582031 Z M 65.609375 0.410156 L 55.40625 0.410156 L 55.40625 1.828125 L 56.6875 1.960938 C 57.160156 2.035156 57.359375 2.382812 57.359375 2.855469 L 57.359375 8.445312 C 57.359375 8.835938 57.195312 9.203125 56.773438 9.265625 L 55.398438 9.441406 L 55.398438 10.8125 L 65.605469 10.820312 C 70.304688 10.820312 72.324219 8.511719 72.324219 5.46875 C 72.324219 2.730469 70.304688 0.417969 65.605469 0.417969 M 64.035156 8.816406 L 61.402344 8.816406 L 61.402344 2.402344 L 64.035156 2.402344 C 66.542969 2.402344 67.597656 2.992188 67.597656 5.605469 C 67.597656 8.238281 66.542969 8.816406 64.035156 8.816406 M 0 10.8125 L 8.257812 10.8125 L 8.257812 9.425781 L 6.84375 9.265625 C 6.519531 9.222656 6.195312 9.015625 6.195312 8.320312 L 6.195312 6.648438 L 12.550781 6.648438 L 12.550781 8.246094 C 12.550781 8.71875 12.472656 9.164062 11.917969 9.226562 L 10.484375 9.382812 L 10.484375 10.8125 L 18.738281 10.8125 L 18.738281 9.382812 L 17.28125 9.222656 C 17 9.179688 16.675781 8.949219 16.675781 8.363281 L 16.675781 2.953125 C 16.675781 2.402344 16.875 2.027344 17.304688 1.992188 L 18.738281 1.828125 L 18.738281 0.410156 L 10.484375 0.410156 L 10.484375 1.808594 L 11.917969 1.992188 C 12.40625 2.054688 12.550781 2.441406 12.550781 2.953125 L 12.550781 4.574219 L 6.195312 4.574219 L 6.195312 2.929688 C 6.195312 2.316406 6.4375 2.027344 6.863281 1.984375 L 8.257812 1.828125 L 8.257812 0.410156 L 0.0195312 0.410156 L 0.0195312 1.828125 L 1.398438 1.992188 C 1.945312 2.054688 2.085938 2.460938 2.066406 2.992188 L 2.066406 8.257812 C 2.066406 8.84375 1.902344 9.195312 1.378906 9.257812 L 0 9.425781 Z M 19.144531 5.5625 C 19.144531 2.304688 21.757812 0.0078125 27.582031 0.0078125 C 33.375 0.0078125 35.984375 2.304688 35.984375 5.5625 C 35.984375 8.910156 33.375 11.179688 27.582031 11.179688 C 21.757812 11.179688 19.152344 8.910156 19.152344 5.5625 M 27.566406 2.011719 C 25.21875 2.011719 23.886719 2.890625 23.886719 5.585938 C 23.886719 8.324219 25.222656 9.203125 27.566406 9.203125 C 29.90625 9.203125 31.25 8.324219 31.25 5.585938 C 31.25 2.890625 29.910156 2.011719 27.566406 2.011719 M 36.441406 10.8125 L 43.039062 10.8125 L 43.039062 9.425781 L 41.621094 9.265625 C 41.21875 9.222656 40.972656 8.878906 40.972656 8.40625 L 40.972656 3.113281 L 46.460938 10.40625 C 46.671875 10.660156 46.984375 10.808594 47.3125 10.8125 L 52.488281 10.8125 L 52.488281 2.929688 C 52.488281 2.558594 52.582031 2.054688 53.113281 1.984375 L 54.554688 1.820312 L 54.554688 0.410156 L 47.957031 0.410156 L 47.957031 1.808594 L 49.394531 1.992188 C 49.898438 2.054688 50.023438 2.480469 50.023438 2.96875 L 50.023438 8.117188 L 44.574219 0.867188 C 44.386719 0.582031 44.066406 0.414062 43.726562 0.410156 L 36.441406 0.410156 L 36.441406 1.828125 L 37.820312 1.992188 C 38.304688 2.0625 38.488281 2.3125 38.488281 2.992188 L 38.488281 8.257812 C 38.488281 8.878906 38.320312 9.179688 37.800781 9.257812 L 36.445312 9.421875 L 36.445312 10.8125 "/>
<path style=" stroke:none;fill-rule:nonzero;fill:rgb(13.333334%,9.019608%,7.843138%);fill-opacity:1;" d="M 3.339844 15.246094 L 5.433594 15.246094 L 5.433594 19.574219 L 6.191406 19.574219 L 6.191406 15.246094 L 8.257812 15.246094 L 8.257812 14.671875 L 3.339844 14.671875 Z M 11.300781 15.734375 C 10.632812 15.734375 10.089844 16.007812 9.761719 16.492188 L 9.761719 14.671875 L 9.027344 14.671875 L 9.027344 19.578125 L 9.761719 19.578125 L 9.761719 17.835938 C 9.761719 16.664062 10.5 16.25 11.191406 16.25 C 11.925781 16.25 12.3125 16.675781 12.3125 17.488281 L 12.3125 19.582031 L 13.042969 19.582031 L 13.042969 17.449219 C 13.042969 16.347656 12.425781 15.734375 11.300781 15.734375 Z M 29.128906 16.121094 C 28.742188 15.765625 28.167969 15.578125 27.425781 15.578125 C 26.714844 15.578125 26.132812 15.773438 25.738281 16.140625 C 25.34375 16.527344 25.132812 17.066406 25.15625 17.621094 C 25.15625 18.269531 25.355469 18.773438 25.742188 19.125 C 26.128906 19.476562 26.695312 19.65625 27.425781 19.65625 C 28.898438 19.65625 29.699219 18.933594 29.699219 17.621094 C 29.707031 16.972656 29.511719 16.46875 29.128906 16.121094 Z M 28.933594 17.621094 C 28.960938 18.03125 28.808594 18.429688 28.523438 18.71875 C 28.234375 19.007812 27.835938 19.15625 27.429688 19.125 C 27.015625 19.144531 26.609375 18.988281 26.316406 18.691406 C 26.054688 18.398438 25.917969 18.015625 25.933594 17.621094 C 25.933594 16.675781 26.492188 16.117188 27.429688 16.117188 C 28.382812 16.117188 28.933594 16.664062 28.933594 17.621094 Z M 50.894531 16.121094 C 50.507812 15.765625 49.933594 15.578125 49.191406 15.578125 C 48.480469 15.578125 47.898438 15.773438 47.5 16.140625 C 47.101562 16.523438 46.886719 17.058594 46.910156 17.613281 C 46.910156 18.925781 47.71875 19.652344 49.1875 19.652344 C 49.914062 19.652344 50.484375 19.472656 50.875 19.117188 C 51.269531 18.765625 51.460938 18.261719 51.460938 17.613281 C 51.460938 16.964844 51.273438 16.46875 50.894531 16.121094 Z M 48.070312 16.535156 C 48.371094 16.246094 48.773438 16.09375 49.191406 16.117188 C 50.152344 16.117188 50.703125 16.664062 50.703125 17.621094 C 50.726562 18.03125 50.574219 18.429688 50.285156 18.71875 C 49.996094 19.007812 49.59375 19.15625 49.191406 19.125 C 48.273438 19.125 47.683594 18.535156 47.683594 17.621094 C 47.664062 17.222656 47.804688 16.832031 48.070312 16.535156 Z M 65.628906 15.632812 C 64.894531 15.691406 64.503906 16.15625 64.257812 16.613281 L 64.257812 15.667969 L 63.605469 15.667969 L 63.605469 19.582031 L 64.347656 19.582031 L 64.347656 17.519531 C 64.351562 17.167969 64.503906 16.835938 64.769531 16.601562 C 65.042969 16.363281 65.398438 16.238281 65.757812 16.25 L 66.117188 16.242188 L 66.117188 15.632812 L 66.109375 15.632812 C 65.949219 15.625 65.789062 15.625 65.628906 15.632812 Z M 22.613281 14.667969 L 20.40625 14.667969 L 20.40625 19.566406 L 21.160156 19.566406 L 21.160156 17.691406 L 22.71875 17.691406 C 23.371094 17.691406 23.878906 17.542969 24.226562 17.25 C 24.550781 16.96875 24.730469 16.554688 24.714844 16.125 C 24.730469 15.773438 24.601562 15.433594 24.359375 15.179688 C 24.019531 14.839844 23.429688 14.667969 22.613281 14.667969 Z M 23.90625 16.132812 C 23.90625 16.824219 23.519531 17.132812 22.652344 17.132812 L 21.160156 17.132812 L 21.160156 15.226562 L 22.601562 15.226562 C 23.492188 15.226562 23.90625 15.515625 23.90625 16.132812 Z M 61.875 15.308594 C 61.40625 14.882812 60.671875 14.671875 59.710938 14.671875 L 57.546875 14.671875 L 57.546875 19.582031 L 59.742188 19.582031 C 60.636719 19.582031 61.347656 19.363281 61.828125 18.945312 C 62.308594 18.527344 62.5625 17.90625 62.5625 17.121094 C 62.5625 16.335938 62.332031 15.714844 61.875 15.308594 Z M 58.3125 15.234375 L 59.535156 15.234375 C 60.417969 15.234375 60.988281 15.390625 61.332031 15.714844 C 61.636719 16.003906 61.773438 16.441406 61.773438 17.128906 C 61.773438 18.402344 61.078125 19.019531 59.648438 19.019531 L 58.308594 19.019531 Z M 75.261719 18.746094 L 75.261719 17.125 C 75.261719 16.71875 75.25 16.382812 74.859375 16.042969 C 74.523438 15.753906 73.953125 15.589844 73.386719 15.589844 C 72.820312 15.589844 71.800781 15.761719 71.613281 16.570312 L 72.414062 16.570312 C 72.535156 16.308594 72.90625 16.117188 73.390625 16.117188 C 74.082031 16.117188 74.558594 16.425781 74.558594 17.023438 L 74.558594 17.160156 L 73.941406 17.160156 C 73.273438 17.160156 72.242188 17.1875 71.75 17.695312 C 71.566406 17.886719 71.464844 18.144531 71.472656 18.414062 C 71.472656 19.144531 72.097656 19.660156 73.019531 19.660156 C 73.746094 19.660156 74.191406 19.535156 74.585938 19 C 74.589844 19.195312 74.601562 19.390625 74.625 19.582031 L 75.324219 19.582031 C 75.289062 19.304688 75.265625 19.023438 75.261719 18.746094 Z M 74.546875 17.835938 C 74.546875 18.695312 74.105469 19.132812 73.191406 19.132812 C 72.574219 19.132812 72.234375 18.863281 72.234375 18.40625 C 72.230469 18.257812 72.285156 18.113281 72.390625 18.007812 C 72.691406 17.703125 73.339844 17.667969 73.828125 17.667969 L 74.546875 17.667969 Z M 81.089844 15.59375 C 80.285156 15.59375 79.875 16.109375 79.679688 16.539062 C 79.488281 15.980469 78.964844 15.601562 78.378906 15.59375 C 77.808594 15.574219 77.28125 15.894531 77.027344 16.410156 C 77.027344 16.410156 77.027344 16.050781 76.996094 15.667969 L 76.304688 15.667969 C 76.328125 15.957031 76.332031 16.3125 76.332031 16.621094 L 76.332031 19.578125 L 77.058594 19.578125 L 77.058594 17.699219 C 77.058594 16.628906 77.644531 16.140625 78.222656 16.140625 C 78.824219 16.140625 79.105469 16.601562 79.105469 17.589844 L 79.105469 19.582031 L 79.832031 19.582031 L 79.832031 17.699219 C 79.832031 17.128906 79.980469 16.707031 80.273438 16.433594 C 80.464844 16.253906 80.710938 16.148438 80.972656 16.140625 C 81.324219 16.140625 81.554688 16.261719 81.695312 16.511719 C 81.828125 16.742188 81.890625 17.09375 81.890625 17.625 L 81.890625 19.582031 L 82.617188 19.582031 L 82.617188 17.335938 C 82.617188 16.746094 82.472656 16.300781 82.183594 16.007812 C 81.886719 15.726562 81.492188 15.574219 81.089844 15.59375 Z M 86.386719 17.449219 L 85.171875 17.195312 C 84.597656 17.082031 84.34375 16.925781 84.34375 16.65625 C 84.34375 16.300781 84.796875 16.117188 85.460938 16.117188 C 86.007812 16.117188 86.398438 16.261719 86.519531 16.566406 L 87.3125 16.566406 C 87.261719 16.234375 87.042969 15.945312 86.734375 15.8125 C 86.355469 15.625 85.816406 15.585938 85.484375 15.585938 C 85.042969 15.566406 84.609375 15.664062 84.21875 15.863281 C 83.855469 16.070312 83.613281 16.378906 83.613281 16.773438 C 83.613281 17.292969 83.992188 17.601562 84.671875 17.753906 L 85.824219 18 C 86.222656 18.082031 86.625 18.199219 86.625 18.539062 C 86.625 18.945312 86.203125 19.144531 85.4375 19.144531 C 84.808594 19.144531 84.425781 18.960938 84.296875 18.578125 L 83.492188 18.578125 C 83.644531 19.472656 84.570312 19.660156 85.347656 19.660156 C 86.722656 19.660156 87.394531 19.253906 87.394531 18.441406 C 87.402344 17.886719 87.109375 17.601562 86.386719 17.449219 Z M 54.085938 14.59375 C 53.683594 14.59375 53.34375 14.636719 53.050781 14.875 C 52.898438 15.007812 52.789062 15.175781 52.730469 15.367188 C 52.660156 15.625 52.628906 15.894531 52.636719 16.164062 L 51.84375 16.164062 L 51.84375 16.695312 L 52.636719 16.695312 L 52.636719 19.578125 L 53.378906 19.578125 L 53.378906 16.699219 L 54.71875 16.699219 L 54.71875 16.167969 L 53.378906 16.167969 C 53.378906 15.625 53.40625 15.449219 53.5625 15.292969 C 53.671875 15.191406 53.832031 15.125 54.183594 15.125 C 54.378906 15.121094 54.574219 15.140625 54.761719 15.1875 L 54.761719 14.648438 C 54.539062 14.609375 54.3125 14.59375 54.085938 14.59375 Z M 35.578125 17.398438 C 35.433594 17.871094 35.277344 18.402344 35.082031 19.0625 C 34.925781 18.535156 34.761719 17.980469 34.589844 17.441406 L 34.078125 15.855469 L 32.949219 15.855469 L 32.433594 17.445312 C 32.261719 17.976562 32.09375 18.527344 31.941406 19.066406 C 31.75 18.40625 31.59375 17.878906 31.449219 17.40625 L 30.972656 15.855469 L 30.167969 15.855469 L 31.367188 19.582031 L 31.367188 19.589844 L 32.496094 19.589844 L 33.03125 17.96875 L 33.164062 17.558594 C 33.285156 17.167969 33.410156 16.769531 33.527344 16.367188 C 33.652344 16.785156 33.78125 17.203125 33.910156 17.609375 L 34.019531 17.96875 L 34.554688 19.578125 L 34.554688 19.585938 L 35.683594 19.585938 L 36.878906 15.863281 L 36.878906 15.851562 L 36.078125 15.851562 Z M 44.390625 15.632812 C 43.660156 15.691406 43.269531 16.15625 43.023438 16.613281 L 43.023438 15.667969 L 42.371094 15.667969 L 42.371094 19.582031 L 43.113281 19.582031 L 43.113281 17.519531 C 43.117188 17.167969 43.273438 16.835938 43.535156 16.601562 C 43.808594 16.363281 44.160156 16.238281 44.523438 16.25 L 44.882812 16.242188 L 44.882812 15.632812 L 44.875 15.632812 C 44.714844 15.625 44.550781 15.625 44.390625 15.632812 Z M 40.867188 16.128906 C 40.527344 15.785156 40.03125 15.585938 39.394531 15.585938 C 38.066406 15.585938 37.300781 16.371094 37.300781 17.695312 C 37.300781 18.28125 37.488281 18.777344 37.847656 19.109375 C 38.203125 19.441406 38.75 19.660156 39.390625 19.660156 C 39.828125 19.664062 40.257812 19.558594 40.640625 19.347656 C 40.953125 19.1875 41.191406 18.910156 41.308594 18.578125 L 40.507812 18.578125 C 40.308594 18.941406 39.875 19.136719 39.347656 19.136719 C 38.859375 19.160156 38.40625 18.890625 38.1875 18.449219 C 38.09375 18.253906 38.039062 18.042969 38.019531 17.828125 L 41.382812 17.828125 L 41.382812 17.601562 C 41.382812 16.964844 41.214844 16.46875 40.867188 16.128906 Z M 38.035156 17.304688 C 38.042969 17.230469 38.058594 17.15625 38.078125 17.085938 C 38.234375 16.457031 38.691406 16.109375 39.378906 16.109375 C 40.265625 16.109375 40.601562 16.738281 40.617188 17.304688 Z M 70.066406 16.128906 C 69.726562 15.785156 69.230469 15.585938 68.59375 15.585938 C 67.261719 15.585938 66.5 16.371094 66.5 17.695312 C 66.5 18.28125 66.6875 18.777344 67.042969 19.109375 C 67.398438 19.441406 67.945312 19.660156 68.589844 19.660156 C 69.023438 19.664062 69.453125 19.558594 69.839844 19.347656 C 70.152344 19.1875 70.390625 18.910156 70.507812 18.578125 L 69.703125 18.578125 C 69.507812 18.941406 69.074219 19.136719 68.546875 19.136719 C 68.058594 19.164062 67.601562 18.890625 67.386719 18.449219 C 67.292969 18.253906 67.234375 18.042969 67.21875 17.828125 L 70.582031 17.828125 C 70.585938 17.664062 70.582031 17.5 70.566406 17.339844 C 70.546875 16.886719 70.371094 16.460938 70.066406 16.128906 Z M 67.234375 17.304688 C 67.242188 17.230469 67.253906 17.15625 67.277344 17.085938 C 67.433594 16.457031 67.886719 16.109375 68.578125 16.109375 C 69.464844 16.109375 69.800781 16.738281 69.8125 17.304688 Z M 17.492188 16.128906 C 17.152344 15.785156 16.65625 15.585938 16.019531 15.585938 C 14.691406 15.585938 13.925781 16.371094 13.925781 17.695312 C 13.925781 18.28125 14.117188 18.777344 14.472656 19.109375 C 14.828125 19.441406 15.375 19.660156 16.015625 19.660156 C 16.453125 19.664062 16.882812 19.558594 17.265625 19.347656 C 17.578125 19.1875 17.820312 18.910156 17.9375 18.578125 L 17.132812 18.578125 C 16.9375 18.941406 16.503906 19.136719 15.976562 19.136719 C 15.488281 19.164062 15.03125 18.890625 14.816406 18.449219 C 14.722656 18.253906 14.664062 18.042969 14.648438 17.828125 L 18.007812 17.828125 L 18.007812 17.601562 C 18.003906 16.964844 17.832031 16.46875 17.492188 16.128906 Z M 14.660156 17.304688 C 14.667969 17.230469 14.679688 17.15625 14.703125 17.085938 C 14.859375 16.457031 15.3125 16.109375 16.003906 16.109375 C 16.890625 16.109375 17.226562 16.738281 17.238281 17.304688 Z M 14.660156 17.304688 "/>
</g>
</svg>
