<?xml version="1.0" encoding="UTF-8"?>
<svg xmlns="http://www.w3.org/2000/svg" xmlns:xlink="http://www.w3.org/1999/xlink" width="131px" height="87px" viewBox="0 0 130 87" version="1.1">
<g id="surface1">
<path style=" stroke:none;fill-rule:nonzero;fill:rgb(86.666667%,23.137255%,13.333334%);fill-opacity:1;" d="M 40.164062 26.71875 C 40.027344 26.804688 39.527344 27.046875 39.046875 27.234375 C 38.582031 27.441406 38.03125 27.667969 37.84375 27.753906 C 37.652344 27.839844 37.070312 28.082031 36.554688 28.269531 C 36.039062 28.476562 35.453125 28.71875 35.265625 28.789062 C 33.664062 29.480469 33.148438 29.6875 32.855469 29.824219 C 32.667969 29.910156 32.082031 30.152344 31.566406 30.34375 C 31.050781 30.53125 30.46875 30.773438 30.277344 30.859375 C 30.089844 30.945312 29.554688 31.171875 29.074219 31.378906 C 28.609375 31.585938 28.058594 31.808594 27.871094 31.894531 C 27.679688 31.980469 27.097656 32.222656 26.582031 32.414062 C 26.066406 32.601562 25.480469 32.84375 25.292969 32.929688 C 25.101562 33.015625 24.570312 33.242188 24.089844 33.449219 C 23.625 33.65625 23.074219 33.878906 22.882812 33.964844 C 22.695312 34.050781 22.109375 34.292969 21.59375 34.484375 C 21.078125 34.671875 20.496094 34.914062 20.304688 35 C 20.117188 35.085938 19.582031 35.3125 19.101562 35.519531 C 18.636719 35.726562 18.085938 35.949219 17.898438 36.035156 C 17.710938 36.121094 17.125 36.363281 16.609375 36.554688 C 16.09375 36.746094 15.507812 36.984375 15.320312 37.070312 C 14.71875 37.347656 13.03125 38.054688 11.792969 38.554688 C 10.902344 38.902344 9.628906 39.4375 9.128906 39.660156 C 8.425781 39.972656 7.222656 40.472656 6.636719 40.695312 C 6.050781 40.921875 4.847656 41.421875 4.144531 41.730469 C 2.683594 42.386719 2.167969 42.59375 1.996094 42.59375 C 1.632812 42.59375 0.652344 43.472656 0.378906 44.0625 C 0 44.871094 0.0351562 45.871094 0.5 46.699219 C 0.703125 47.097656 2.253906 48.824219 3.9375 50.53125 L 7.015625 53.636719 L 9.472656 53.636719 L 9.027344 53.242188 C 8.785156 53.035156 7.546875 51.878906 6.277344 50.6875 C 5.003906 49.496094 3.628906 48.203125 3.214844 47.839844 C 2.355469 47.082031 1.652344 46.046875 1.652344 45.542969 C 1.652344 44.957031 2.699219 44.0625 3.886719 43.648438 C 4.503906 43.441406 5.125 43.199219 5.261719 43.113281 C 5.414062 43.042969 5.777344 42.921875 6.105469 42.851562 C 6.414062 42.785156 6.859375 42.628906 7.117188 42.492188 C 7.375 42.351562 7.71875 42.25 7.875 42.25 C 8.03125 42.25 8.203125 42.179688 8.253906 42.09375 C 8.304688 42.007812 8.632812 41.886719 8.976562 41.816406 C 9.320312 41.765625 9.730469 41.644531 9.886719 41.558594 C 10.039062 41.472656 11.019531 41.128906 12.050781 40.78125 C 13.101562 40.4375 14.097656 40.09375 14.289062 40.003906 C 14.476562 39.9375 15.128906 39.695312 15.75 39.488281 C 16.367188 39.28125 16.988281 39.054688 17.125 38.96875 C 17.28125 38.902344 17.65625 38.78125 17.984375 38.710938 C 18.3125 38.640625 18.671875 38.523438 18.757812 38.453125 C 18.859375 38.382812 19.515625 38.140625 20.21875 37.933594 C 20.925781 37.710938 21.59375 37.46875 21.679688 37.398438 C 21.785156 37.332031 22.128906 37.226562 22.453125 37.160156 C 22.78125 37.089844 23.160156 36.96875 23.3125 36.898438 C 23.453125 36.8125 24.070312 36.589844 24.691406 36.382812 C 25.308594 36.175781 25.960938 35.933594 26.152344 35.863281 C 26.339844 35.796875 26.992188 35.554688 27.613281 35.347656 C 28.230469 35.140625 28.851562 34.914062 28.988281 34.828125 C 29.144531 34.757812 29.519531 34.640625 29.847656 34.570312 C 30.175781 34.5 30.535156 34.378906 30.621094 34.328125 C 30.726562 34.257812 31.34375 34.019531 31.996094 33.8125 C 32.667969 33.605469 33.355469 33.363281 33.542969 33.277344 C 33.734375 33.1875 34.4375 32.949219 35.09375 32.757812 C 36.777344 32.222656 37.328125 31.929688 38.359375 30.996094 C 39.253906 30.1875 39.90625 29.082031 40.421875 27.582031 C 40.78125 26.476562 40.75 26.375 40.164062 26.71875 Z M 89.800781 31.5 C 89.734375 31.550781 89.679688 34 89.679688 36.933594 L 89.679688 42.25 L 92.261719 42.25 L 92.261719 40.453125 C 92.261719 39.453125 92.328125 38.453125 92.433594 38.210938 C 92.585938 37.796875 92.671875 37.761719 93.617188 37.761719 C 94.238281 37.761719 94.703125 37.847656 94.804688 37.988281 C 94.90625 38.109375 95.027344 39.089844 95.046875 40.195312 L 95.097656 42.164062 L 97.503906 42.164062 L 97.503906 31.464844 L 96.351562 31.410156 C 94.976562 31.359375 95.027344 31.257812 94.960938 33.878906 L 94.925781 35.605469 L 93.703125 35.65625 C 92.5 35.707031 92.464844 35.691406 92.363281 35.242188 C 92.292969 34.984375 92.242188 34.136719 92.261719 33.378906 C 92.277344 32.601562 92.277344 31.84375 92.277344 31.671875 C 92.261719 31.429688 92.089844 31.378906 91.089844 31.378906 C 90.4375 31.378906 89.851562 31.429688 89.800781 31.5 Z M 102.199219 31.550781 C 102.042969 31.652344 101.871094 32.035156 101.800781 32.414062 C 101.734375 32.792969 101.628906 33.136719 101.542969 33.1875 C 101.476562 33.242188 101.355469 33.550781 101.285156 33.898438 C 101.234375 34.242188 101.113281 34.65625 101.027344 34.8125 C 100.941406 34.96875 100.480469 36.363281 99.996094 37.933594 C 99.5 39.503906 99.035156 40.9375 98.949219 41.128906 C 98.554688 42.078125 98.621094 42.164062 99.859375 42.214844 C 100.925781 42.265625 101.011719 42.230469 101.113281 41.871094 C 101.183594 41.644531 101.355469 41.144531 101.492188 40.730469 L 101.769531 40.003906 L 103.195312 40.003906 C 104.003906 40.003906 104.675781 40.09375 104.726562 40.195312 C 104.792969 40.28125 104.984375 40.78125 105.15625 41.265625 L 105.464844 42.164062 L 106.789062 42.214844 C 107.992188 42.265625 108.09375 42.230469 108.007812 41.957031 C 107.957031 41.78125 107.871094 41.402344 107.804688 41.128906 C 107.734375 40.832031 107.632812 40.523438 107.5625 40.4375 C 107.492188 40.332031 107.375 39.988281 107.320312 39.660156 C 107.253906 39.332031 107.132812 38.902344 107.046875 38.710938 C 106.960938 38.523438 106.738281 37.78125 106.53125 37.070312 C 106.324219 36.363281 106.03125 35.382812 105.894531 34.914062 C 105.757812 34.433594 105.585938 33.929688 105.515625 33.792969 C 105.429688 33.636719 105.308594 33.257812 105.242188 32.929688 C 105.171875 32.601562 105 32.121094 104.878906 31.84375 C 104.640625 31.410156 104.554688 31.378906 103.554688 31.378906 C 102.972656 31.378906 102.371094 31.464844 102.199219 31.550781 Z M 103.488281 35.261719 C 103.625 35.382812 103.796875 35.882812 103.867188 36.328125 C 103.933594 36.777344 104.054688 37.246094 104.140625 37.347656 C 104.417969 37.675781 103.867188 37.953125 103.058594 37.898438 C 102.234375 37.847656 102.25 37.933594 102.59375 36.070312 C 102.800781 34.96875 103.023438 34.777344 103.488281 35.261719 Z M 108.027344 31.480469 C 107.957031 31.550781 107.90625 32.015625 107.90625 32.535156 C 107.90625 33.515625 107.890625 33.5 108.988281 33.449219 C 110.160156 33.398438 110.140625 33.363281 110.140625 38.039062 L 110.140625 42.25 L 112.890625 42.25 L 112.890625 37.953125 C 112.890625 33.121094 112.789062 33.449219 114.285156 33.449219 L 115.144531 33.449219 L 115.09375 32.449219 L 115.042969 31.464844 L 111.585938 31.410156 C 109.695312 31.394531 108.09375 31.429688 108.027344 31.480469 Z M 116.332031 36.8125 L 116.332031 42.25 L 119.082031 42.25 L 119.046875 36.847656 L 118.996094 31.464844 L 117.671875 31.410156 L 116.332031 31.359375 Z M 62.015625 31.671875 C 61.3125 31.808594 60.160156 33.136719 60.023438 33.949219 C 59.851562 34.949219 60.058594 36.035156 60.503906 36.589844 C 60.847656 37.019531 62.773438 38.109375 63.1875 38.109375 C 63.460938 38.109375 64.234375 38.953125 64.234375 39.246094 C 64.234375 39.589844 63.390625 40.351562 62.996094 40.351562 C 62.824219 40.351562 62.34375 39.988281 61.929688 39.558594 C 61.175781 38.78125 61.175781 38.78125 60.46875 38.96875 C 59.628906 39.195312 59.457031 39.503906 59.78125 40.144531 C 60.125 40.832031 61.175781 41.902344 61.5 41.902344 C 61.671875 41.902344 61.863281 41.972656 61.914062 42.078125 C 62.085938 42.351562 63.597656 42.285156 64.339844 41.972656 C 65.179688 41.628906 65.730469 41.128906 66.144531 40.316406 C 66.710938 39.195312 66.488281 37.589844 65.628906 36.746094 C 65.335938 36.449219 63.152344 35.347656 62.875 35.347656 C 62.789062 35.347656 62.550781 35.140625 62.359375 34.898438 C 62.085938 34.550781 62.050781 34.363281 62.171875 34.121094 C 62.617188 33.308594 63.703125 33.378906 64.097656 34.242188 C 64.269531 34.621094 64.371094 34.671875 64.886719 34.570312 C 65.695312 34.414062 66.125 34.121094 66.125 33.722656 C 66.125 33.242188 65.472656 32.359375 64.871094 32.015625 C 64.339844 31.707031 62.738281 31.515625 62.015625 31.671875 Z M 76.148438 32.84375 C 75.667969 33.15625 75.222656 33.585938 75.152344 33.777344 C 75.101562 33.984375 74.894531 34.226562 74.707031 34.3125 C 74.242188 34.570312 74.242188 35.949219 74.707031 36.191406 C 74.980469 36.347656 75.03125 36.640625 75.101562 38.402344 C 75.203125 40.746094 75.460938 41.574219 76.253906 41.972656 C 76.921875 42.335938 78.058594 42.335938 78.402344 41.972656 C 78.558594 41.835938 78.675781 41.457031 78.675781 41.128906 C 78.675781 40.558594 78.453125 40.351562 77.816406 40.351562 C 77.386719 40.351562 77.265625 39.679688 77.335938 37.761719 L 77.386719 36.296875 L 77.902344 36.210938 C 78.402344 36.121094 78.417969 36.089844 78.417969 35.261719 C 78.417969 34.433594 78.402344 34.398438 77.902344 34.3125 C 77.40625 34.226562 77.386719 34.191406 77.335938 33.222656 C 77.300781 32.6875 77.234375 32.242188 77.164062 32.257812 C 77.09375 32.257812 76.648438 32.515625 76.148438 32.84375 Z M 76.148438 32.84375 "/>
<path style=" stroke:none;fill-rule:nonzero;fill:rgb(86.666667%,23.137255%,13.333334%);fill-opacity:1;" d="M 34.835938 34.605469 C 33.5625 35.019531 32.390625 35.433594 32.253906 35.519531 C 32.101562 35.589844 31.722656 35.707031 31.394531 35.777344 C 31.070312 35.847656 30.726562 35.96875 30.621094 36.035156 C 30.535156 36.105469 30.175781 36.226562 29.847656 36.296875 C 29.519531 36.363281 29.175781 36.484375 29.074219 36.554688 C 28.988281 36.625 28.628906 36.746094 28.300781 36.8125 C 27.972656 36.882812 27.59375 37.003906 27.441406 37.089844 C 27.304688 37.160156 25.910156 37.625 24.347656 38.109375 C 22.78125 38.609375 21.269531 39.125 20.957031 39.246094 C 20.667969 39.382812 20.269531 39.488281 20.082031 39.488281 C 19.875 39.488281 19.6875 39.558594 19.636719 39.644531 C 19.566406 39.730469 19.222656 39.851562 18.84375 39.917969 C 18.464844 39.988281 18.121094 40.09375 18.070312 40.179688 C 18.019531 40.265625 17.675781 40.367188 17.296875 40.4375 C 16.917969 40.507812 16.574219 40.609375 16.523438 40.695312 C 16.472656 40.765625 16.160156 40.886719 15.816406 40.953125 C 15.472656 41.007812 15.0625 41.128906 14.90625 41.214844 C 14.753906 41.300781 14.097656 41.523438 13.429688 41.730469 C 12.773438 41.9375 12.070312 42.164062 11.878906 42.25 C 11.691406 42.316406 10.609375 42.679688 9.472656 43.027344 C 8.339844 43.386719 7.167969 43.785156 6.859375 43.90625 C 6.566406 44.042969 6.171875 44.148438 5.984375 44.148438 C 5.777344 44.148438 5.585938 44.214844 5.535156 44.300781 C 5.484375 44.390625 5.175781 44.507812 4.867188 44.5625 C 3.921875 44.734375 2.855469 45.320312 2.855469 45.664062 C 2.855469 45.839844 3.042969 46.167969 3.265625 46.375 C 3.679688 46.769531 3.695312 46.769531 4.867188 46.476562 C 5.5 46.320312 6.378906 46.113281 6.808594 46.027344 C 7.238281 45.941406 7.703125 45.785156 7.875 45.699219 C 8.03125 45.613281 8.546875 45.492188 9.027344 45.425781 C 9.507812 45.355469 9.953125 45.234375 10.007812 45.164062 C 10.058594 45.078125 10.246094 45.011719 10.417969 45.011719 C 10.589844 45.011719 10.953125 44.820312 11.210938 44.578125 C 11.46875 44.335938 11.984375 44.0625 12.378906 43.972656 C 12.773438 43.871094 13.480469 43.679688 13.945312 43.558594 C 16.351562 42.886719 16.917969 42.730469 17.46875 42.59375 C 17.796875 42.507812 18.378906 42.335938 18.757812 42.230469 C 19.136719 42.128906 19.875 41.9375 20.390625 41.816406 C 21.304688 41.59375 22.453125 41.28125 24.261719 40.78125 C 26.769531 40.09375 27.25 39.972656 27.957031 39.816406 C 28.386719 39.730469 28.851562 39.574219 28.988281 39.503906 C 29.144531 39.417969 29.605469 39.296875 30.019531 39.230469 C 30.433594 39.160156 30.898438 39.039062 31.050781 38.953125 C 31.1875 38.882812 31.652344 38.730469 32.082031 38.640625 C 34.402344 38.125 34.558594 38.054688 35.539062 37.070312 C 36.347656 36.261719 37.585938 34.363281 37.585938 33.929688 C 37.585938 33.707031 37.308594 33.777344 34.835938 34.605469 Z M 68.621094 35.085938 C 68.101562 35.589844 67.84375 36.003906 67.84375 36.296875 C 67.84375 36.710938 67.898438 36.726562 68.757812 36.726562 C 69.566406 36.726562 69.683594 36.675781 69.996094 36.210938 C 70.183594 35.933594 70.425781 35.691406 70.527344 35.691406 C 70.835938 35.691406 71.285156 36.296875 71.285156 36.710938 C 71.285156 37.105469 70.613281 37.484375 70.183594 37.3125 C 69.925781 37.210938 68.585938 37.847656 68.171875 38.28125 C 67.792969 38.660156 67.640625 39.175781 67.640625 40.09375 C 67.640625 41.179688 67.777344 41.488281 68.464844 41.886719 C 69.1875 42.316406 69.855469 42.351562 70.40625 41.972656 C 70.75 41.714844 70.921875 41.714844 71.695312 41.902344 C 73.332031 42.300781 73.261719 42.4375 73.261719 38.867188 C 73.261719 36.640625 73.191406 35.621094 73.039062 35.328125 C 72.660156 34.621094 71.902344 34.3125 70.578125 34.3125 C 69.394531 34.3125 69.375 34.3125 68.621094 35.085938 Z M 71.25 39.175781 C 71.335938 39.867188 70.820312 40.558594 70.269531 40.488281 C 69.703125 40.417969 69.582031 39.710938 70.011719 39.054688 C 70.425781 38.433594 71.179688 38.503906 71.25 39.175781 Z M 79.710938 37.710938 C 79.710938 41.386719 79.761719 41.574219 80.6875 42.058594 C 81.203125 42.316406 82.132812 42.285156 82.511719 42.007812 C 82.734375 41.835938 82.976562 41.800781 83.371094 41.921875 C 84.164062 42.144531 84.96875 42.109375 85.195312 41.835938 C 85.332031 41.679688 85.382812 40.507812 85.347656 38.003906 L 85.296875 34.398438 L 84.316406 34.34375 C 83.371094 34.292969 83.320312 34.3125 83.300781 34.691406 L 83.300781 37.160156 C 83.320312 39.625 83.199219 40.246094 82.648438 40.316406 C 82.425781 40.351562 82.167969 40.300781 82.046875 40.179688 C 81.925781 40.058594 81.824219 38.9375 81.773438 37.191406 L 81.6875 34.398438 L 80.707031 34.34375 L 79.710938 34.292969 Z M 120.886719 39.765625 C 120.304688 40.402344 120.335938 41.058594 120.992188 41.714844 C 121.644531 42.371094 122.296875 42.402344 122.933594 41.816406 C 123.5 41.28125 123.570312 40.195312 123.035156 39.660156 C 122.503906 39.125 121.421875 39.195312 120.886719 39.765625 Z M 33.578125 40.109375 C 33.527344 40.160156 32.996094 40.332031 32.390625 40.472656 C 31.789062 40.609375 30.84375 40.832031 30.277344 40.972656 C 27.851562 41.59375 27.304688 41.730469 26.496094 41.902344 C 26.03125 42.007812 25.480469 42.164062 25.292969 42.25 C 25.101562 42.335938 24.605469 42.457031 24.175781 42.523438 C 23.761719 42.578125 23.296875 42.699219 23.140625 42.785156 C 23.003906 42.851562 22.507812 43.007812 22.023438 43.113281 C 21.5625 43.214844 20.734375 43.40625 20.21875 43.542969 C 19.703125 43.679688 18.792969 43.90625 18.207031 44.042969 C 17.175781 44.300781 16.179688 44.5625 14.03125 45.097656 C 13.515625 45.234375 12.621094 45.476562 12.050781 45.632812 C 11.484375 45.785156 10.589844 46.011719 10.074219 46.148438 C 9.558594 46.269531 8.632812 46.511719 8.011719 46.648438 C 7.394531 46.804688 6.515625 47.027344 6.035156 47.132812 C 4.539062 47.496094 4.4375 47.683594 5.382812 48.339844 L 6.035156 48.789062 L 7.496094 48.53125 C 10.367188 48.011719 11.726562 47.769531 13.152344 47.53125 C 14.289062 47.355469 14.667969 47.21875 14.890625 46.90625 C 15.078125 46.648438 15.472656 46.460938 16.023438 46.355469 C 17.777344 46.027344 19.496094 45.699219 20.734375 45.457031 C 21.441406 45.320312 22.730469 45.078125 23.574219 44.921875 C 24.433594 44.769531 25.703125 44.507812 26.410156 44.371094 C 27.113281 44.234375 28.285156 44.027344 28.988281 43.886719 C 31.566406 43.441406 32.1875 43.078125 33.542969 41.28125 C 33.871094 40.851562 34.144531 40.386719 34.144531 40.246094 C 34.144531 40.003906 33.785156 39.917969 33.578125 40.109375 Z M 28.300781 45.632812 C 27.59375 45.75 26.359375 45.976562 25.550781 46.132812 C 24.742188 46.269531 23.46875 46.511719 22.710938 46.648438 C 21.957031 46.804688 20.683594 47.027344 19.875 47.183594 C 18.328125 47.460938 16.503906 47.804688 14.339844 48.21875 C 11.484375 48.753906 10.109375 49.011719 8.734375 49.21875 C 6.964844 49.496094 6.722656 49.6875 7.410156 50.289062 C 8.40625 51.171875 8.527344 51.203125 9.816406 51.050781 C 10.488281 50.964844 11.984375 50.773438 13.171875 50.617188 C 14.355469 50.480469 16.128906 50.273438 17.125 50.167969 C 18.601562 50.015625 19.015625 49.910156 19.359375 49.582031 C 19.6875 49.289062 20.132812 49.152344 21.25 49.011719 C 24.003906 48.667969 25.292969 48.460938 26.546875 48.183594 C 27.714844 47.925781 27.90625 47.804688 28.917969 46.839844 C 29.96875 45.820312 30.277344 45.335938 29.8125 45.371094 C 29.691406 45.390625 29.003906 45.492188 28.300781 45.632812 Z M 49.449219 48.21875 C 48.863281 48.339844 47.902344 48.824219 47.453125 49.238281 C 45.957031 50.617188 45.289062 53.949219 45.941406 56.605469 C 46.421875 58.574219 46.957031 59.351562 48.226562 60.023438 C 49.15625 60.488281 51.132812 60.523438 52.027344 60.09375 C 52.972656 59.625 53.96875 58.453125 54.347656 57.3125 C 54.777344 56.070312 54.847656 52.121094 54.453125 51.292969 C 53.796875 49.859375 53.625 49.582031 53.316406 49.273438 C 52.472656 48.460938 50.703125 47.996094 49.449219 48.21875 Z M 51.289062 51.03125 C 51.890625 51.53125 52.199219 52.6875 52.199219 54.449219 C 52.199219 56.847656 51.511719 58.125 50.222656 58.125 C 48.933594 58.125 48.417969 57.125 48.417969 54.621094 C 48.417969 52.328125 48.519531 51.84375 49.140625 51.203125 C 49.742188 50.601562 50.6875 50.53125 51.289062 51.03125 Z M 77.558594 48.253906 C 77.214844 48.304688 77.214844 48.425781 77.214844 54.328125 L 77.214844 60.367188 L 77.902344 60.472656 C 78.28125 60.523438 78.902344 60.539062 79.277344 60.507812 L 79.96875 60.453125 L 80.019531 58.140625 C 80.035156 56.777344 80.140625 55.726562 80.257812 55.589844 C 80.363281 55.449219 80.84375 55.363281 81.53125 55.363281 C 83.0625 55.363281 83.183594 55.570312 83.128906 58.175781 C 83.113281 59.246094 83.148438 60.210938 83.199219 60.316406 C 83.269531 60.417969 83.835938 60.488281 84.472656 60.472656 L 85.640625 60.453125 L 85.691406 54.363281 C 85.726562 49.566406 85.691406 48.289062 85.519531 48.269531 C 84.816406 48.21875 83.269531 48.269531 83.183594 48.359375 C 83.128906 48.425781 83.113281 49.273438 83.128906 50.253906 C 83.183594 52.707031 83.148438 52.773438 81.429688 52.773438 L 80.054688 52.773438 L 80.054688 50.53125 C 80.054688 49.289062 80 48.289062 79.933594 48.269531 C 79.484375 48.21875 77.851562 48.203125 77.558594 48.253906 Z M 87.515625 48.324219 C 87.445312 48.425781 87.410156 57.089844 87.445312 60.402344 C 87.445312 60.472656 88.976562 60.523438 90.867188 60.539062 C 93.894531 60.539062 94.304688 60.507812 94.53125 60.230469 C 94.90625 59.796875 95.699219 58.382812 95.699219 58.160156 C 95.699219 58.003906 94.941406 57.953125 93.050781 57.953125 C 90.09375 57.953125 90.195312 58.003906 90.195312 56.554688 C 90.195312 55.484375 90.402344 55.382812 92.519531 55.328125 L 94.410156 55.277344 L 94.460938 54.105469 L 94.511719 52.949219 L 92.550781 52.949219 C 90.386719 52.949219 90.195312 52.863281 90.195312 51.914062 C 90.195312 50.808594 90.386719 50.722656 92.605469 50.671875 L 94.582031 50.617188 L 94.632812 49.445312 C 94.667969 48.582031 94.632812 48.289062 94.460938 48.289062 C 94.339844 48.289062 92.742188 48.269531 90.917969 48.238281 C 89.078125 48.21875 87.550781 48.253906 87.515625 48.324219 Z M 99.808594 48.359375 C 99.722656 48.460938 99.652344 48.738281 99.652344 48.980469 C 99.652344 49.238281 99.601562 49.496094 99.53125 49.566406 C 99.445312 49.632812 99.308594 50.066406 99.1875 50.496094 C 99.085938 50.945312 98.863281 51.773438 98.707031 52.34375 C 98.554688 52.914062 98.328125 53.742188 98.226562 54.191406 C 98.105469 54.621094 97.96875 55.054688 97.882812 55.121094 C 97.8125 55.191406 97.761719 55.382812 97.761719 55.554688 C 97.761719 55.707031 97.640625 56.226562 97.503906 56.675781 C 96.679688 59.453125 96.542969 60.058594 96.628906 60.28125 C 96.695312 60.472656 97.003906 60.539062 97.8125 60.539062 C 99.085938 60.539062 99.359375 60.332031 99.566406 59.246094 C 99.636719 58.867188 99.773438 58.503906 99.878906 58.433594 C 100.152344 58.261719 102.78125 58.261719 103.039062 58.433594 C 103.160156 58.523438 103.332031 58.9375 103.417969 59.402344 C 103.503906 59.851562 103.625 60.265625 103.675781 60.332031 C 103.746094 60.402344 104.382812 60.472656 105.105469 60.507812 C 106.546875 60.59375 106.875 60.4375 106.582031 59.816406 C 106.480469 59.589844 106.289062 59.074219 106.1875 58.640625 C 106.082031 58.210938 105.878906 57.46875 105.757812 57.003906 C 105.621094 56.519531 105.429688 55.796875 105.328125 55.363281 C 105.207031 54.933594 105.070312 54.433594 104.984375 54.242188 C 104.847656 53.914062 104.691406 53.328125 104.246094 51.53125 C 104.125 51.101562 103.984375 50.671875 103.898438 50.601562 C 103.832031 50.53125 103.78125 50.359375 103.78125 50.203125 C 103.78125 49.839844 103.46875 48.773438 103.28125 48.476562 C 103.109375 48.203125 100.082031 48.097656 99.808594 48.359375 Z M 101.957031 53.308594 C 102.113281 53.757812 102.285156 54.5 102.351562 55 C 102.457031 55.949219 102.492188 55.914062 101.457031 55.914062 C 100.425781 55.914062 100.460938 55.933594 100.582031 55.085938 C 100.667969 54.414062 100.890625 53.621094 101.304688 52.449219 C 101.40625 52.121094 101.597656 52.359375 101.957031 53.308594 Z M 108.0625 48.304688 C 107.976562 48.359375 107.921875 50.929688 107.941406 54.433594 L 107.992188 60.453125 L 108.851562 60.507812 C 109.316406 60.539062 109.96875 60.523438 110.261719 60.453125 L 110.828125 60.351562 L 110.828125 58.125 C 110.828125 56.089844 110.863281 55.882812 111.140625 55.882812 C 111.414062 55.882812 112.03125 56.433594 112.03125 56.675781 C 112.03125 56.726562 112.136719 57.019531 112.273438 57.3125 C 112.890625 58.710938 113.238281 59.574219 113.238281 59.765625 C 113.238281 60.300781 113.855469 60.539062 115.195312 60.523438 C 116.675781 60.488281 116.863281 60.351562 116.433594 59.558594 C 116.296875 59.296875 115.902344 58.453125 115.558594 57.691406 C 115.214844 56.933594 114.785156 56.019531 114.59375 55.675781 C 114.214844 54.949219 114.285156 54.691406 115.023438 54 C 115.988281 53.101562 116.003906 50.460938 115.042969 49.425781 C 114.214844 48.546875 113.375 48.304688 110.675781 48.253906 C 109.332031 48.21875 108.148438 48.253906 108.0625 48.304688 Z M 112.824219 50.460938 C 113.667969 50.808594 113.753906 50.945312 113.753906 51.945312 C 113.753906 52.894531 113.476562 53.257812 112.394531 53.742188 C 112.015625 53.914062 111.636719 54.191406 111.585938 54.363281 C 111.535156 54.550781 111.363281 54.671875 111.207031 54.640625 C 110.949219 54.585938 110.914062 54.292969 110.863281 52.601562 C 110.847656 51.53125 110.863281 50.53125 110.898438 50.410156 C 111.019531 50.101562 112.015625 50.136719 112.824219 50.460938 Z M 117.226562 48.253906 C 116.847656 48.304688 116.828125 48.375 116.882812 49.460938 L 116.933594 50.617188 L 118.222656 50.671875 C 118.925781 50.703125 119.582031 50.789062 119.683594 50.894531 C 119.785156 50.996094 119.890625 52.980469 119.941406 55.761719 L 120.027344 60.453125 L 121.214844 60.507812 C 121.867188 60.539062 122.46875 60.488281 122.554688 60.402344 C 122.640625 60.316406 122.710938 58.332031 122.691406 55.933594 C 122.691406 53.414062 122.761719 51.429688 122.847656 51.152344 C 123.019531 50.722656 123.070312 50.703125 124.414062 50.703125 L 125.789062 50.703125 L 125.789062 48.304688 L 121.710938 48.253906 C 119.460938 48.21875 117.449219 48.21875 117.226562 48.253906 Z M 60.503906 50.878906 C 60.296875 50.964844 59.832031 51.53125 59.472656 52.152344 C 59.109375 52.773438 58.734375 53.292969 58.613281 53.292969 C 58.390625 53.292969 58.164062 52.101562 58.25 51.394531 C 58.304688 50.964844 58.285156 50.964844 57.132812 50.964844 L 55.964844 50.964844 L 55.964844 55.3125 C 55.964844 57.710938 55.980469 59.832031 55.980469 60.023438 C 55.980469 60.351562 56.066406 60.386719 57.238281 60.332031 L 58.476562 60.28125 L 58.5625 57.433594 C 58.628906 55.085938 58.699219 54.484375 58.957031 54.105469 C 59.644531 53.050781 60.917969 52.773438 61.15625 53.636719 C 61.226562 53.878906 61.277344 55.433594 61.292969 57.105469 C 61.3125 60.574219 61.207031 60.367188 62.859375 60.367188 C 63.734375 60.367188 63.855469 60.332031 63.941406 59.988281 C 64.011719 59.78125 64.011719 58.089844 63.960938 56.226562 C 63.855469 52.535156 63.71875 51.878906 62.84375 51.238281 C 62.273438 50.824219 61.070312 50.636719 60.503906 50.878906 Z M 67.792969 50.945312 C 66.746094 51.34375 66.160156 51.914062 65.558594 53.121094 C 65.230469 53.792969 65.179688 54.171875 65.179688 55.882812 C 65.179688 57.574219 65.230469 57.953125 65.523438 58.382812 C 66.574219 59.972656 67.484375 60.417969 69.738281 60.417969 C 70.632812 60.4375 71.523438 60.351562 71.714844 60.246094 C 71.921875 60.125 72.179688 59.660156 72.367188 59.089844 C 72.726562 57.867188 72.726562 57.710938 72.367188 57.867188 C 71.78125 58.074219 69.566406 58.261719 68.980469 58.125 C 68.257812 57.96875 67.671875 57.382812 67.671875 56.832031 L 67.671875 56.398438 L 70.0625 56.398438 C 71.386719 56.398438 72.574219 56.347656 72.726562 56.296875 C 72.933594 56.210938 73.003906 55.949219 73.003906 55.261719 C 73.003906 53.207031 72.332031 51.792969 71.0625 51.136719 C 70.304688 50.738281 68.601562 50.636719 67.792969 50.945312 Z M 69.667969 53.050781 C 70.320312 53.363281 70.632812 54.085938 70.234375 54.363281 C 69.976562 54.535156 67.929688 54.464844 67.742188 54.277344 C 67.46875 54 68.308594 53.015625 69.015625 52.792969 C 69.050781 52.773438 69.339844 52.894531 69.667969 53.050781 Z M 17.898438 51.050781 C 17.625 51.136719 16.488281 51.292969 15.40625 51.394531 C 14.320312 51.515625 12.535156 51.6875 11.449219 51.808594 L 9.472656 52.015625 L 10.265625 52.828125 L 11.054688 53.636719 L 17.914062 53.601562 L 24.777344 53.550781 L 22.796875 52.359375 C 21.714844 51.6875 20.804688 51.101562 20.769531 51.015625 C 20.683594 50.84375 18.570312 50.859375 17.898438 51.050781 Z M 11.261719 55.8125 C 10.832031 55.949219 10.265625 56.296875 9.988281 56.570312 C 9.578125 57.003906 9.492188 57.246094 9.492188 58.019531 C 9.472656 59.109375 9.765625 59.523438 10.933594 60.09375 C 12.050781 60.625 14.492188 60.609375 15.542969 60.058594 C 17.109375 59.230469 17.398438 57.46875 16.160156 56.382812 C 15.269531 55.605469 12.859375 55.328125 11.261719 55.8125 Z M 14.132812 56.328125 C 15.042969 56.570312 15.371094 58.347656 14.648438 59.246094 C 14.269531 59.730469 14.148438 59.765625 13.171875 59.765625 C 12.222656 59.765625 12.070312 59.710938 11.691406 59.28125 C 11.074219 58.554688 11.105469 57.398438 11.777344 56.726562 C 12.191406 56.328125 12.429688 56.226562 13.03125 56.226562 C 13.445312 56.226562 13.925781 56.277344 14.132812 56.328125 Z M 0.859375 55.898438 C 0.808594 56.003906 0.910156 56.191406 1.117188 56.328125 C 1.425781 56.554688 1.480469 56.761719 1.480469 58.003906 C 1.480469 59.28125 1.445312 59.4375 1.015625 59.882812 L 0.550781 60.367188 L 2.355469 60.367188 C 3.972656 60.351562 4.109375 60.332031 3.816406 60.109375 C 3.628906 59.972656 3.421875 59.851562 3.351562 59.851562 C 3.285156 59.851562 3.164062 59.609375 3.113281 59.296875 C 2.941406 58.554688 3.335938 58.296875 4.554688 58.296875 C 5.792969 58.296875 6.242188 58.433594 6.34375 58.796875 C 6.449219 59.246094 6.191406 59.816406 5.792969 59.9375 C 4.984375 60.179688 5.519531 60.367188 7.066406 60.367188 C 8.769531 60.367188 9.007812 60.246094 8.269531 59.746094 C 7.875 59.488281 7.839844 59.367188 7.839844 58.019531 C 7.839844 56.625 7.859375 56.554688 8.269531 56.363281 C 9.078125 56.003906 8.648438 55.796875 7.082031 55.796875 C 5.519531 55.796875 5.105469 55.933594 5.828125 56.210938 C 6.292969 56.398438 6.5 56.898438 6.257812 57.332031 C 6.136719 57.554688 5.8125 57.605469 4.660156 57.605469 C 3.25 57.605469 3.199219 57.589844 3.09375 57.175781 C 2.972656 56.710938 3.265625 56.226562 3.644531 56.226562 C 3.9375 56.226562 3.972656 55.882812 3.679688 55.863281 C 2.234375 55.742188 0.945312 55.761719 0.859375 55.898438 Z M 17.898438 55.847656 C 17.710938 56.035156 17.828125 56.191406 18.242188 56.296875 C 18.65625 56.398438 18.671875 56.449219 18.671875 57.933594 C 18.671875 59.382812 18.636719 59.503906 18.242188 59.816406 C 18 60.003906 17.8125 60.210938 17.8125 60.265625 C 17.8125 60.316406 18.398438 60.367188 19.121094 60.367188 L 20.441406 60.367188 L 19.980469 59.9375 C 19.550781 59.539062 19.515625 59.417969 19.566406 58.347656 C 19.601562 57.453125 19.6875 57.175781 19.894531 57.125 C 20.03125 57.105469 20.238281 57.226562 20.324219 57.398438 C 20.410156 57.589844 20.648438 57.96875 20.855469 58.226562 C 21.078125 58.503906 21.527344 59.109375 21.871094 59.558594 L 22.488281 60.386719 L 23.625 60.332031 L 24.777344 60.28125 L 24.828125 58.347656 C 24.878906 56.433594 24.878906 56.398438 25.292969 56.296875 C 26.03125 56.105469 25.753906 55.914062 24.671875 55.847656 C 23.417969 55.777344 23.074219 55.933594 23.625 56.3125 C 23.949219 56.554688 24.003906 56.742188 24.003906 57.710938 C 24.003906 58.589844 23.949219 58.847656 23.710938 58.9375 C 23.554688 59.003906 23.382812 58.953125 23.347656 58.847656 C 23.3125 58.730469 23.195312 58.539062 23.089844 58.417969 C 22.96875 58.296875 22.695312 57.933594 22.453125 57.605469 C 22.230469 57.277344 21.972656 56.917969 21.90625 56.832031 C 21.835938 56.726562 21.628906 56.46875 21.441406 56.226562 C 21.148438 55.847656 21.011719 55.8125 19.550781 55.796875 C 18.6875 55.777344 17.949219 55.796875 17.898438 55.847656 Z M 26.648438 55.914062 C 26.582031 56.019531 26.667969 56.175781 26.820312 56.261719 C 27.046875 56.382812 27.097656 56.710938 27.097656 57.988281 C 27.097656 59.367188 27.046875 59.625 26.71875 59.972656 L 26.359375 60.367188 L 29.003906 60.367188 C 31.378906 60.351562 31.738281 60.316406 32.425781 59.972656 C 34.214844 59.089844 34.214844 56.761719 32.425781 56.019531 C 31.84375 55.761719 26.789062 55.675781 26.648438 55.914062 Z M 31.5 56.761719 C 31.738281 57.019531 31.824219 57.382812 31.824219 58.074219 C 31.824219 59.367188 31.414062 59.710938 29.949219 59.644531 L 28.902344 59.589844 L 28.851562 58.226562 C 28.816406 57.46875 28.832031 56.761719 28.886719 56.625 C 28.953125 56.46875 29.316406 56.398438 30.070312 56.398438 C 30.964844 56.398438 31.222656 56.46875 31.5 56.761719 Z M 36.863281 55.828125 C 36.125 55.863281 35.523438 55.96875 35.523438 56.054688 C 35.523438 56.15625 35.625 56.226562 35.761719 56.226562 C 35.882812 56.226562 36.089844 56.347656 36.210938 56.484375 C 36.382812 56.691406 36.242188 57.003906 35.523438 58.210938 C 35.023438 59.054688 34.4375 59.78125 34.214844 59.882812 C 33.476562 60.230469 33.769531 60.367188 35.195312 60.367188 L 36.605469 60.367188 L 36.140625 59.9375 C 35.898438 59.710938 35.695312 59.4375 35.695312 59.351562 C 35.695312 59.003906 36.382812 58.816406 37.722656 58.816406 C 39.40625 58.816406 39.75 59.054688 39.148438 59.851562 L 38.769531 60.367188 L 40.628906 60.367188 L 42.484375 60.351562 L 41.847656 59.796875 C 41.503906 59.488281 40.867188 58.660156 40.4375 57.953125 C 39.0625 55.675781 39.148438 55.726562 36.863281 55.828125 Z M 38.101562 57.125 C 38.289062 57.347656 38.425781 57.675781 38.410156 57.867188 C 38.359375 58.160156 38.238281 58.210938 37.585938 58.210938 C 36.691406 58.210938 36.519531 57.898438 37 57.191406 C 37.34375 56.640625 37.636719 56.625 38.101562 57.125 Z M 127.007812 57.246094 C 126.0625 58.074219 126.25 59.660156 127.371094 60.230469 C 128.125 60.625 128.746094 60.539062 129.484375 59.953125 C 129.929688 59.589844 130 59.4375 130 58.640625 C 130 57.882812 129.929688 57.691406 129.519531 57.332031 C 128.898438 56.796875 127.574219 56.742188 127.007812 57.246094 Z M 127.007812 57.246094 "/>
</g>
</svg>
